<svg width="373" height="131" viewBox="0 0 373 131" fill="none" xmlns="http://www.w3.org/2000/svg">
<g filter="url(#filter0_d_46_577)">
<path fill-rule="evenodd" clip-rule="evenodd" d="M104 5C72.5198 5 47 30.5198 47 62C47 93.4802 72.5198 119 104 119H262C263.55 119 265.085 118.938 266.603 118.817C281.93 118.286 316.624 115.117 336 102.5C331.348 99.4162 327.38 98.0999 324.185 97.04C318.063 95.0093 314.779 93.9196 314.95 83.1421C317.563 76.6046 319 69.4701 319 62C319 30.5198 293.48 5 262 5H104Z" fill="white"/>
</g>
<path d="M330.111 4.88892C326.556 7.33099 327.238 21.4683 328.024 28.2317L341.781 6.95229C339.373 5.24697 333.667 2.44686 330.111 4.88892Z" fill="url(#paint0_linear_46_577)"/>
<path d="M346.339 14.8651C337.788 21.9758 329.359 44.6756 326.213 55.1366L367.453 8.13308C363.978 7.41429 354.89 7.75439 346.339 14.8651Z" fill="url(#paint1_linear_46_577)"/>
<path d="M12.3897 121.582C15.7561 124.279 29.0911 119.535 35.3378 116.826L10.9881 109.815C10.0526 112.613 9.02319 118.885 12.3897 121.582Z" fill="url(#paint2_linear_46_577)"/>
<path d="M17.2436 103.162C26.5244 109.29 50.6921 110.79 61.6158 110.774L4.69006 84.8992C5.00759 88.4338 7.96283 97.0347 17.2436 103.162Z" fill="url(#paint3_linear_46_577)"/>
<defs>
<filter id="filter0_d_46_577" x="43" y="5" width="297" height="122" filterUnits="userSpaceOnUse" color-interpolation-filters="sRGB">
<feFlood flood-opacity="0" result="BackgroundImageFix"/>
<feColorMatrix in="SourceAlpha" type="matrix" values="0 0 0 0 0 0 0 0 0 0 0 0 0 0 0 0 0 0 127 0" result="hardAlpha"/>
<feOffset dy="4"/>
<feGaussianBlur stdDeviation="2"/>
<feComposite in2="hardAlpha" operator="out"/>
<feColorMatrix type="matrix" values="0 0 0 0 0 0 0 0 0 0 0 0 0 0 0 0 0 0 0.25 0"/>
<feBlend mode="normal" in2="BackgroundImageFix" result="effect1_dropShadow_46_577"/>
<feBlend mode="normal" in="SourceGraphic" in2="effect1_dropShadow_46_577" result="shape"/>
</filter>
<linearGradient id="paint0_linear_46_577" x1="326.865" y1="7.45537" x2="329.107" y2="27.9273" gradientUnits="userSpaceOnUse">
<stop stop-color="white" stop-opacity="0.8"/>
<stop offset="1" stop-color="white" stop-opacity="0"/>
</linearGradient>
<linearGradient id="paint1_linear_46_577" x1="338.3" y1="21.9117" x2="349.247" y2="42.8613" gradientUnits="userSpaceOnUse">
<stop stop-color="white" stop-opacity="0.8"/>
<stop offset="1" stop-color="white" stop-opacity="0"/>
</linearGradient>
<linearGradient id="paint2_linear_46_577" x1="15.7855" y1="123.947" x2="34.7332" y2="115.877" gradientUnits="userSpaceOnUse">
<stop stop-color="white" stop-opacity="0.8"/>
<stop offset="1" stop-color="white" stop-opacity="0"/>
</linearGradient>
<linearGradient id="paint3_linear_46_577" x1="26.3147" y1="108.818" x2="43.2006" y2="92.2774" gradientUnits="userSpaceOnUse">
<stop stop-color="white" stop-opacity="0.8"/>
<stop offset="1" stop-color="white" stop-opacity="0"/>
</linearGradient>
</defs>
</svg>
