<svg width="400" height="252" viewBox="0 0 400 252" fill="none" xmlns="http://www.w3.org/2000/svg">
<g filter="url(#filter0_d_89_2682)">
<path d="M193.443 204.696V240.2H178.381" stroke="#3F3F3F" stroke-width="10.7588" stroke-linecap="round"/>
<path d="M236.36 204.341L251.888 236.269L265.434 229.681" stroke="#3F3F3F" stroke-width="10.7588" stroke-linecap="round"/>
<g filter="url(#filter1_d_89_2682)">
<path fill-rule="evenodd" clip-rule="evenodd" d="M164.03 188.284H116.439C116.319 188.284 116.199 188.285 116.079 188.285C116.046 188.285 116.013 188.285 115.98 188.285C115.893 188.284 115.805 188.284 115.718 188.284H115.331L115.333 188.279C87.0994 187.884 64.335 165.056 64.335 136.953C64.335 108.783 87.208 85.9132 115.535 85.6237C123.491 46.4776 158.356 17 200.161 17C227.051 17 251.069 29.1956 266.903 48.3153C273.322 46.4535 280.113 45.4549 287.14 45.4549C326.9 45.4549 359.131 77.4301 359.131 116.873C359.131 124.117 358.044 131.11 356.023 137.698L356.116 137.703C355.631 139.697 354.848 141.743 353.831 143.82C348.261 157.373 338.615 168.848 326.404 176.745C322.802 180.363 319.743 183.5 317.871 185.914L312.836 183.608C312.725 183.651 312.614 183.692 312.502 183.734L313.939 188.311H199.299L199.309 188.292H164.025L164.03 188.284Z" fill="white"/>
<path fill-rule="evenodd" clip-rule="evenodd" d="M207.943 103.089L138.672 103.089L138.676 103.094C115.388 103.358 96.6113 118.555 96.6113 137.264C96.6113 156.017 115.478 171.242 138.842 171.435C145.404 197.497 174.162 217.123 208.645 217.123C230.822 217.123 250.631 209.006 263.691 196.279C268.987 197.519 274.589 198.184 280.385 198.184C313.179 198.184 339.765 176.897 339.765 150.639C339.765 145.816 338.868 141.161 337.2 136.774L337.278 136.771C333.922 125.637 321.39 110.505 314.988 103.719L315.329 103.079H207.936L207.943 103.089Z" fill="white"/>
<path fill-rule="evenodd" clip-rule="evenodd" d="M211.652 188.799C208.582 188.799 205.552 188.631 202.57 188.304H174.576L174.578 188.3H129.297L129.229 188.3L129.161 188.3H128.522L128.525 188.295C101.819 187.921 80.2852 166.328 80.2852 139.745C80.2852 112.929 102.198 91.1905 129.229 91.1905C130.056 91.1905 130.878 91.2108 131.694 91.251C139.39 54.4408 172.265 26.7773 211.652 26.7773C236.591 26.7773 258.919 37.8678 273.898 55.3483C279.372 53.9411 285.113 53.1924 291.03 53.1924C328.639 53.1924 359.126 83.4375 359.126 120.747C359.126 127.599 358.098 134.213 356.186 140.445L356.277 140.451C355.915 141.938 355.341 143.473 354.59 145.042C348.655 160.313 337.289 172.906 322.84 180.493C319.717 183.467 317.154 186.029 315.63 187.995L314.805 187.617L315.016 188.314H220.64C217.688 188.634 214.69 188.799 211.652 188.799Z" fill="#F3F3F3"/>
<path fill-rule="evenodd" clip-rule="evenodd" d="M215.076 103.093H149.554L149.557 103.098C127.529 103.347 109.768 117.722 109.768 135.418C109.768 153.157 127.613 167.559 149.714 167.741C155.921 192.392 183.123 210.956 215.74 210.956C236.718 210.956 255.456 203.277 267.809 191.238C272.817 192.41 278.115 193.039 283.596 193.039C314.616 193.039 339.763 172.904 339.763 148.066C339.763 143.505 338.915 139.101 337.338 134.952L337.412 134.949C334.238 124.418 322.383 110.104 316.328 103.685L316.65 103.081H215.067L215.076 103.093Z" fill="#F3F3F3"/>
<ellipse cx="193.434" cy="103.414" rx="4.79559" ry="6.79375" fill="#3F3F3F"/>
<ellipse cx="232.6" cy="103.414" rx="4.79559" ry="6.79375" fill="#3F3F3F"/>
<path d="M194.235 125.193C201.229 131.321 218.373 139.7 231.002 124.194" stroke="#3F3F3F" stroke-width="3.99632" stroke-linecap="round"/>
</g>
<path d="M331.156 101.999C342.632 95.902 367.736 78.3292 376.343 56.8115" stroke="#3F3F3F" stroke-width="6.4553" stroke-linecap="round"/>
<path d="M79.3994 122.441C67.9233 128.537 42.8194 146.11 34.2123 167.628" stroke="#3F3F3F" stroke-width="6.4553" stroke-linecap="round"/>
<path d="M375.717 59.6073C374.368 57.9123 373.785 56.4366 372.535 54.672C370.625 51.9749 370.23 48.5467 369.935 45.3477C369.628 42.0151 370.818 39.1418 373.17 36.7901C374.745 35.2145 375.888 37.6181 376.559 39.029L376.563 39.0375C377.181 40.3377 377.475 41.6515 377.577 43.034C377.561 41.0995 377.574 38.0689 377.717 36.6491C378.012 33.7366 379.252 29.7873 382.045 28.3912C384.023 27.4022 386.732 27.88 388.875 27.88C389.735 27.88 390.085 28.19 390.646 28.8142C391.834 30.1359 392.724 31.4203 393.202 33.1503C393.928 35.7776 394.259 39.059 393.766 41.7519C393.132 45.2145 390.788 47.9158 388.69 50.6355C387.906 51.6511 387.1 52.6573 386.046 53.4029C385.268 53.9529 384.642 54.7512 383.807 55.2007C382.924 55.6763 382.029 56.0943 381.163 56.5932C380.54 56.9523 379.183 57.4141 378.766 58.0209C378.522 58.3761 377.668 58.6178 377.268 58.8846L377.244 58.9002C376.851 59.1625 376.184 59.6073 375.717 59.6073Z" fill="#3F3F3F"/>
<path d="M35.2823 163.326C36.6306 165.021 37.2139 166.497 38.4639 168.262C40.3743 170.959 40.7691 174.387 41.0637 177.586C41.3707 180.919 40.181 183.792 37.8293 186.143C36.2537 187.719 35.1111 185.316 34.4403 183.905L34.4363 183.896C33.8181 182.596 33.5238 181.282 33.4219 179.9C33.4382 181.834 33.4253 184.865 33.2818 186.284C32.9872 189.197 31.7467 193.146 28.9545 194.542C26.9765 195.531 24.2666 195.054 22.1243 195.054C21.2638 195.054 20.914 194.744 20.3529 194.119C19.1649 192.798 18.2749 191.513 17.7971 189.783C17.0715 187.156 16.74 183.875 17.2331 181.182C17.867 177.719 20.2113 175.018 22.3094 172.298C23.0929 171.282 23.8986 170.276 24.9534 169.531C25.7314 168.981 26.3569 168.182 27.1919 167.733C28.075 167.257 28.9701 166.839 29.8358 166.34C30.4589 165.981 31.8158 165.519 32.233 164.913C32.4772 164.557 33.3309 164.316 33.7312 164.049L33.7546 164.033C34.1478 163.771 34.8147 163.326 35.2823 163.326Z" fill="#3F3F3F"/>
</g>
<defs>
<filter id="filter0_d_89_2682" x="0.702116" y="0.703093" width="398.73" height="250.309" filterUnits="userSpaceOnUse" color-interpolation-filters="sRGB">
<feFlood flood-opacity="0" result="BackgroundImageFix"/>
<feColorMatrix in="SourceAlpha" type="matrix" values="0 0 0 0 0 0 0 0 0 0 0 0 0 0 0 0 0 0 127 0" result="hardAlpha"/>
<feOffset dx="-5.4323" dy="-5.4323"/>
<feGaussianBlur stdDeviation="5.4323"/>
<feComposite in2="hardAlpha" operator="out"/>
<feColorMatrix type="matrix" values="0 0 0 0 0 0 0 0 0 0 0 0 0 0 0 0 0 0 0.25 0"/>
<feBlend mode="normal" in2="BackgroundImageFix" result="effect1_dropShadow_89_2682"/>
<feBlend mode="normal" in="SourceGraphic" in2="effect1_dropShadow_89_2682" result="shape"/>
</filter>
<filter id="filter1_d_89_2682" x="55.7279" y="17" width="312.01" height="217.337" filterUnits="userSpaceOnUse" color-interpolation-filters="sRGB">
<feFlood flood-opacity="0" result="BackgroundImageFix"/>
<feColorMatrix in="SourceAlpha" type="matrix" values="0 0 0 0 0 0 0 0 0 0 0 0 0 0 0 0 0 0 127 0" result="hardAlpha"/>
<feOffset dy="8.60707"/>
<feGaussianBlur stdDeviation="4.30353"/>
<feComposite in2="hardAlpha" operator="out"/>
<feColorMatrix type="matrix" values="0 0 0 0 0 0 0 0 0 0 0 0 0 0 0 0 0 0 0.25 0"/>
<feBlend mode="normal" in2="BackgroundImageFix" result="effect1_dropShadow_89_2682"/>
<feBlend mode="normal" in="SourceGraphic" in2="effect1_dropShadow_89_2682" result="shape"/>
</filter>
</defs>
</svg>
