<svg width="198" height="198" viewBox="0 0 198 198" fill="none" xmlns="http://www.w3.org/2000/svg">
<g id="ic_recode_startRecording">
<g id="Group">
<g id="Vector" filter="url(#filter0_d_66_4917)">
<path d="M98.8155 174C142.344 174 177.631 138.713 177.631 95.1847C177.631 51.6561 142.344 16.3691 98.8155 16.3691C55.2869 16.3691 20 51.6561 20 95.1847C20 138.713 55.2869 174 98.8155 174Z" fill="url(#paint0_radial_66_4917)" shape-rendering="crispEdges"/>
</g>
</g>
<path id="Vector_2" d="M97.5736 62.8975C105.769 62.8975 112.413 69.5413 112.413 77.7369V89.6084C112.413 97.8035 105.769 104.447 97.5736 104.447C89.3774 104.447 82.7335 97.8035 82.7335 89.6084V77.7369C82.7335 69.5413 89.3774 62.8975 97.5736 62.8975ZM71.4791 95.3432C71.1594 93.8812 72.3331 92.5769 73.8292 92.5769H74.8307C76.0801 92.5769 77.1234 93.5011 77.4294 94.7127C79.7044 103.718 87.8604 110.383 97.5736 110.383C107.285 110.383 115.442 103.718 117.716 94.7127C118.022 93.5011 119.065 92.5769 120.316 92.5769H121.317C122.813 92.5769 123.986 93.8812 123.666 95.3432C121.407 105.673 113.17 113.766 102.763 115.815C101.508 116.062 100.541 117.126 100.541 118.405V125.679C100.541 127.066 99.4172 128.191 98.0295 128.191H97.1161C95.7299 128.191 94.6049 127.066 94.6049 125.679V118.405C94.6049 117.126 93.6385 116.062 92.3826 115.815C81.976 113.766 73.739 105.673 71.4791 95.3432Z" fill="#FFDB00"/>
<path id="Vector_3" d="M97.5731 62.8965C105.768 62.8965 112.412 69.5403 112.412 77.7359V89.6074C112.412 97.8025 105.768 104.446 97.5731 104.446C89.3769 104.446 82.7331 97.8025 82.7331 89.6074V77.7359C82.7331 69.5403 89.3769 62.8965 97.5731 62.8965ZM71.4787 95.3422C71.1589 93.8803 72.3326 92.5759 73.8287 92.5759H74.8302C76.0796 92.5759 77.1229 93.5001 77.4289 94.7117C79.7039 103.717 87.8599 110.382 97.5731 110.382C107.284 110.382 115.441 103.717 117.716 94.7117C118.022 93.5001 119.065 92.5759 120.315 92.5759H121.317C122.813 92.5759 123.986 93.8803 123.666 95.3422C121.406 105.672 113.169 113.765 102.763 115.814C101.508 116.061 100.54 117.125 100.54 118.404V125.678C100.54 127.065 99.4167 128.19 98.029 128.19H97.1157C95.7294 128.19 94.6044 127.065 94.6044 125.678V118.404C94.6044 117.125 93.638 116.061 92.3821 115.814C81.9755 113.765 73.7385 105.672 71.4787 95.3422Z" fill="url(#paint1_linear_66_4917)"/>
</g>
<defs>
<filter id="filter0_d_66_4917" x="0" y="0.369141" width="197.631" height="197.631" filterUnits="userSpaceOnUse" color-interpolation-filters="sRGB">
<feFlood flood-opacity="0" result="BackgroundImageFix"/>
<feColorMatrix in="SourceAlpha" type="matrix" values="0 0 0 0 0 0 0 0 0 0 0 0 0 0 0 0 0 0 127 0" result="hardAlpha"/>
<feOffset dy="4"/>
<feGaussianBlur stdDeviation="10"/>
<feComposite in2="hardAlpha" operator="out"/>
<feColorMatrix type="matrix" values="0 0 0 0 0 0 0 0 0 0 0 0 0 0 0 0 0 0 0.5 0"/>
<feBlend mode="normal" in2="BackgroundImageFix" result="effect1_dropShadow_66_4917"/>
<feBlend mode="normal" in="SourceGraphic" in2="effect1_dropShadow_66_4917" result="shape"/>
</filter>
<radialGradient id="paint0_radial_66_4917" cx="0" cy="0" r="1" gradientUnits="userSpaceOnUse" gradientTransform="translate(61.1157 79.8278) scale(256.874)">
<stop/>
<stop offset="0.506335" stop-opacity="0.471"/>
<stop offset="1" stop-opacity="0"/>
</radialGradient>
<linearGradient id="paint1_linear_66_4917" x1="80.5" y1="80.5" x2="124" y2="128" gradientUnits="userSpaceOnUse">
<stop stop-color="white"/>
<stop offset="1" stop-color="#999999"/>
</linearGradient>
</defs>
</svg>
