<svg width="32" height="32" viewBox="0 0 32 32" fill="none" xmlns="http://www.w3.org/2000/svg">
<g id="Frame">
<path id="Vector" d="M27.6179 9.50415L27.2891 10.2584C27.0486 10.8106 26.2848 10.8106 26.0442 10.2584L25.7155 9.50415C25.1295 8.15929 24.074 7.08855 22.757 6.50277L21.744 6.05229C21.1964 5.80871 21.1964 5.01175 21.744 4.76816L22.7003 4.34285C24.0512 3.74201 25.1256 2.63164 25.7015 1.2411L26.0391 0.426045C26.2744 -0.142015 27.059 -0.142015 27.2942 0.426045L27.6318 1.2411C28.2078 2.63164 29.2822 3.74201 30.6331 4.34285L31.5892 4.76816C32.137 5.01175 32.137 5.80871 31.5892 6.05229L30.5764 6.50277C29.2594 7.08855 28.2039 8.15929 27.6179 9.50415ZM12 2.66667C17.4234 2.66667 21.9014 6.71416 22.5783 11.9533L25.579 16.6716C25.7766 16.9823 25.7367 17.4463 25.2791 17.6423L22.6667 18.7613V22.6667C22.6667 24.1395 21.4728 25.3333 20 25.3333H17.3347L17.3334 29.3333H5.33337L5.33371 24.4081C5.33381 22.8336 4.75139 21.3449 3.67404 20.0015C2.20947 18.1751 1.33337 15.8565 1.33337 13.3333C1.33337 7.44229 6.109 2.66667 12 2.66667ZM28.2047 24.1365L25.9858 22.6572C27.2582 20.7523 28 18.4628 28 16.0001C28 15.3187 27.9432 14.6504 27.8342 14L30.4248 13.3333C30.5838 14.1981 30.6667 15.0893 30.6667 16.0001C30.6667 19.0101 29.76 21.8083 28.2047 24.1365Z" fill="#FFDB00"/>
</g>
</svg>
