<svg width="291" height="180" viewBox="0 0 291 180" fill="none" xmlns="http://www.w3.org/2000/svg">
<path d="M157.969 147.883V175.727H169.782" stroke="#3F3F3F" stroke-width="8.43765" stroke-linecap="round"/>
<path d="M124.313 147.604L112.134 172.644L101.512 167.477" stroke="#3F3F3F" stroke-width="8.43765" stroke-linecap="round"/>
<g filter="url(#filter0_d_70_7622)">
<path fill-rule="evenodd" clip-rule="evenodd" d="M181.04 135.02H219.229L219.226 135.015C241.368 134.705 259.221 116.802 259.221 94.7623C259.221 72.6706 241.283 54.7351 219.069 54.5073C212.83 23.8052 185.486 0.685547 152.699 0.685547C131.611 0.685547 112.775 10.2499 100.357 25.2445C95.3229 23.7845 89.9973 23.0015 84.4872 23.0015C53.3055 23.0015 28.0276 48.0782 28.0276 79.0118C28.0276 84.6931 28.8803 90.1768 30.4656 95.3439L30.3906 95.3483C30.7727 96.9187 31.3907 98.5316 32.194 100.168C36.5628 110.785 44.1214 119.773 53.6884 125.962C56.515 128.801 58.9155 131.263 60.3844 133.158L64.335 131.349C64.4211 131.382 64.5074 131.414 64.5937 131.446L63.4673 135.035H153.374L153.366 135.021H181.041L181.04 135.02Z" fill="white"/>
<path fill-rule="evenodd" clip-rule="evenodd" d="M169.422 68.1969H200.922L200.92 68.2001C219.183 68.407 233.908 80.3253 233.908 94.9975C233.908 109.705 219.113 121.645 200.789 121.796C195.643 142.235 173.09 157.626 146.047 157.626C128.652 157.626 113.115 151.258 102.873 141.276C98.721 142.247 94.3287 142.769 89.7843 142.769C64.065 142.769 43.2154 126.074 43.2154 105.481C43.2154 101.699 43.9186 98.0488 45.226 94.6091L45.1646 94.6062C47.7968 85.8749 57.6249 74.0075 62.6456 68.6856L62.3797 68.1864H146.603L146.597 68.195H169.424L169.422 68.1969Z" fill="white"/>
<path fill-rule="evenodd" clip-rule="evenodd" d="M146.588 135.022H208.883L208.881 135.018C229.825 134.725 246.713 117.79 246.713 96.9426C246.713 76.0463 229.746 59.0813 208.733 58.8656C202.833 29.8237 176.968 7.9541 145.954 7.9541C126.008 7.9541 108.191 17.0004 96.4458 31.183C91.6836 29.8019 86.646 29.0612 81.4339 29.0612C51.9393 29.0612 28.0291 52.7811 28.0291 82.041C28.0291 87.4154 28.8357 92.6028 30.3355 97.4907L30.2637 97.4949C30.5479 98.6632 30.9994 99.8691 31.5895 101.101C36.2444 113.073 45.1558 122.947 56.4836 128.895C58.9346 131.229 60.9454 133.239 62.1412 134.781L62.7901 134.484L62.6234 135.034H146.594L146.588 135.022Z" fill="#F3F3F3"/>
<path fill-rule="evenodd" clip-rule="evenodd" d="M141.004 68.2011H191.801L191.93 68.2009L192.059 68.2011H192.389L192.387 68.2035C209.662 68.399 223.591 79.6726 223.591 93.551C223.591 107.462 209.596 118.756 192.265 118.9C187.398 138.234 166.065 152.793 140.484 152.793C124.03 152.793 109.334 146.77 99.6462 137.327C95.7189 138.246 91.5645 138.739 87.2663 138.739C62.9385 138.739 43.2169 122.948 43.2169 103.469C43.2169 99.8915 43.8822 96.4382 45.1192 93.1843L45.0596 93.1815C47.5496 84.9219 56.8473 73.6954 61.596 68.662L61.3449 68.1907H141.011L141.004 68.2011Z" fill="#F3F3F3"/>
<ellipse cx="3.76096" cy="5.32802" rx="3.76096" ry="5.32802" transform="matrix(-1 0 0 1 161.735 63.124)" fill="#3F3F3F"/>
<ellipse cx="3.76096" cy="5.32802" rx="3.76096" ry="5.32802" transform="matrix(-1 0 0 1 131.02 63.124)" fill="#3F3F3F"/>
<path d="M157.346 85.5335C151.862 90.3392 138.416 96.9104 128.512 84.75" stroke="#3F3F3F" stroke-width="3.13413" stroke-linecap="round"/>
</g>
<path d="M49.9658 67.3424C40.9657 62.5611 21.2778 48.7796 14.5277 31.9043" stroke="#3F3F3F" stroke-width="5.06259" stroke-linecap="round"/>
<path d="M15.0188 34.0958C16.0762 32.7665 16.5337 31.6091 17.5139 30.2252C19.0122 28.11 19.3218 25.4215 19.5529 22.9126C19.7936 20.299 18.8606 18.0456 17.0163 16.2013C15.7806 14.9656 14.8845 16.8506 14.3584 17.9572L14.3553 17.9638C13.8705 18.9835 13.6396 20.0138 13.5598 21.0981C13.5726 19.5809 13.5624 17.2042 13.4498 16.0907C13.2189 13.8066 12.246 10.7093 10.0562 9.61443C8.50494 8.83881 6.37967 9.21355 4.6996 9.21355C4.02469 9.21355 3.75037 9.45667 3.31034 9.94619C2.37868 10.9827 1.68067 11.99 1.30595 13.3468C0.736866 15.4072 0.47691 17.9807 0.863596 20.0926C1.36081 22.8081 3.19932 24.9267 4.84475 27.0596C5.45916 27.8561 6.09109 28.6452 6.91826 29.2299C7.52845 29.6612 8.01904 30.2873 8.67384 30.6399C9.36642 31.0128 10.0684 31.3407 10.7474 31.7319C11.236 32.0136 12.3002 32.3757 12.6273 32.8516C12.8189 33.1302 13.4884 33.3197 13.8023 33.529L13.8207 33.5412C14.129 33.7469 14.6521 34.0958 15.0188 34.0958Z" fill="#3F3F3F"/>
<path d="M241.458 79.818C250.458 75.0367 270.146 61.2552 276.896 44.3799" stroke="#3F3F3F" stroke-width="5.06259" stroke-linecap="round"/>
<path d="M276.057 47.7549C275 46.4257 274.542 45.2683 273.562 43.8844C272.064 41.7692 271.754 39.0806 271.523 36.5718C271.283 33.9582 272.216 31.7048 274.06 29.8605C275.296 28.6248 276.192 30.5098 276.718 31.6164L276.721 31.623C277.206 32.6427 277.437 33.673 277.516 34.7572C277.504 33.2401 277.514 30.8634 277.626 29.7499C277.857 27.4657 278.83 24.3685 281.02 23.2736C282.571 22.498 284.697 22.8727 286.377 22.8727C287.051 22.8727 287.326 23.1158 287.766 23.6054C288.697 24.6419 289.395 25.6492 289.77 27.0059C290.339 29.0664 290.599 31.6399 290.213 33.7518C289.715 36.4673 287.877 38.5858 286.231 40.7188C285.617 41.5153 284.985 42.3044 284.158 42.8891C283.548 43.3204 283.057 43.9465 282.402 44.2991C281.71 44.672 281.008 44.9999 280.329 45.3911C279.84 45.6727 278.776 46.0349 278.449 46.5108C278.257 46.7894 277.588 46.9789 277.274 47.1882L277.255 47.2004C276.947 47.4061 276.424 47.7549 276.057 47.7549Z" fill="#3F3F3F"/>
<defs>
<filter id="filter0_d_70_7622" x="21.2775" y="0.685547" width="244.693" height="170.441" filterUnits="userSpaceOnUse" color-interpolation-filters="sRGB">
<feFlood flood-opacity="0" result="BackgroundImageFix"/>
<feColorMatrix in="SourceAlpha" type="matrix" values="0 0 0 0 0 0 0 0 0 0 0 0 0 0 0 0 0 0 127 0" result="hardAlpha"/>
<feOffset dy="6.75012"/>
<feGaussianBlur stdDeviation="3.37506"/>
<feComposite in2="hardAlpha" operator="out"/>
<feColorMatrix type="matrix" values="0 0 0 0 0 0 0 0 0 0 0 0 0 0 0 0 0 0 0.25 0"/>
<feBlend mode="normal" in2="BackgroundImageFix" result="effect1_dropShadow_70_7622"/>
<feBlend mode="normal" in="SourceGraphic" in2="effect1_dropShadow_70_7622" result="shape"/>
</filter>
</defs>
</svg>
