<svg width="81" height="87" viewBox="0 0 81 87" fill="none" xmlns="http://www.w3.org/2000/svg">
<g id="Group 987869" filter="url(#filter0_d_89_2801)">
<path id="Ellipse 761" d="M41.6704 14C36.9556 14 32.3134 15.1628 28.1553 17.3854C23.9971 19.608 20.4513 22.8217 17.8318 26.742C15.2124 30.6623 13.6002 35.1681 13.1381 39.8603C12.6759 44.5524 13.3781 49.2862 15.1824 53.6422C16.9867 57.9981 19.8375 61.8419 23.4821 64.833C27.1268 67.8241 31.4528 69.8702 36.0771 70.79C40.7014 71.7098 45.4812 71.475 49.993 70.1064C54.5049 68.7377 58.6096 66.2774 61.9435 62.9435L41.6704 42.6704V14Z" fill="#FFDB00" fill-opacity="0.5"/>
<path id="Union" fill-rule="evenodd" clip-rule="evenodd" d="M36.5599 12.7438C36.5599 11.3935 37.6546 10.2988 39.0049 10.2988H45.6729C47.0232 10.2988 48.1178 11.3935 48.1178 12.7438C48.1178 14.0941 47.0232 15.1887 45.6729 15.1887H44.5606V17.412C44.5606 17.4439 44.5599 17.4756 44.5585 17.5072C48.7729 17.873 52.6919 19.2705 56.0617 21.4457C56.0852 21.3587 56.1202 21.2733 56.1674 21.1916L56.6966 20.2749L56.238 20.0101C55.6812 19.6886 55.4904 18.9766 55.8119 18.4197C56.1334 17.8629 56.8454 17.6721 57.4023 17.9936L60.1521 19.5812C60.709 19.9027 60.8998 20.6148 60.5783 21.1716C60.2568 21.7285 59.5447 21.9193 58.9879 21.5978L58.5298 21.3333L58.0006 22.25C57.9203 22.3891 57.8132 22.5031 57.6896 22.5892C63.7597 27.2183 67.6769 34.5266 67.6769 42.7498C67.6769 56.7438 56.3325 68.0882 42.3385 68.0882C28.3444 68.0882 17 56.7438 17 42.7498C17 29.5042 27.1634 18.6323 40.1172 17.5073C40.1159 17.4757 40.1152 17.4439 40.1152 17.412V15.1887H39.0049C37.6546 15.1887 36.5599 14.0941 36.5599 12.7438ZM41 24C41 23.4477 41.4477 23 42 23C42.4838 23 42.8874 23.3436 42.98 23.8001C42.9937 23.8659 43.0008 23.9342 43.0008 24.0041V26.0041C43.0008 26.5564 42.5531 27.0041 42.0008 27.0041C41.517 27.0041 41.1134 26.6605 41.0208 26.204C41.0072 26.1381 41 26.0699 41 26V24ZM47.1764 23.6815C46.6429 23.5385 46.0946 23.8551 45.9516 24.3886L45.434 26.3204C45.2911 26.8539 45.6076 27.4022 46.1411 27.5452C46.6746 27.6881 47.2229 27.3715 47.3659 26.8381L47.8835 24.9062C48.0264 24.3728 47.7098 23.8244 47.1764 23.6815ZM50.6349 26.046C50.911 25.5677 51.5226 25.4038 52.0009 25.68C52.4792 25.9561 52.6431 26.5677 52.3669 27.046L51.3669 28.7781C51.0908 29.2564 50.4792 29.4202 50.0009 29.1441C49.5226 28.8679 49.3587 28.2564 49.6349 27.7781L50.6349 26.046ZM56.1433 28.8584C55.7528 28.4679 55.1196 28.4679 54.7291 28.8584L53.3149 30.2727C52.9244 30.6632 52.9244 31.2963 53.3149 31.6869C53.7054 32.0774 54.3386 32.0774 54.7291 31.6869L56.1433 30.2727C56.5339 29.8821 56.5339 29.249 56.1433 28.8584ZM57.9563 32.6351C58.4345 32.359 59.0461 32.5229 59.3223 33.0012C59.5984 33.4795 59.4345 34.091 58.9563 34.3672L57.2242 35.3672C56.7459 35.6433 56.1343 35.4795 55.8582 35.0012C55.582 34.5229 55.7459 33.9113 56.2242 33.6351L57.9563 32.6351ZM61.3205 37.825C61.1776 37.2916 60.6292 36.975 60.0957 37.1179L58.1639 37.6356C57.6304 37.7785 57.3138 38.3268 57.4568 38.8603C57.5997 39.3938 58.1481 39.7104 58.6815 39.5674L60.6134 39.0498C61.1469 38.9068 61.4634 38.3585 61.3205 37.825ZM61.0018 42.0023C61.5541 42.0023 62.0018 42.45 62.0018 43.0023C62.0018 43.5546 61.5541 44.0023 61.0018 44.0023H59.0018C58.4495 44.0023 58.0018 43.5546 58.0018 43.0023C58.0018 42.45 58.4495 42.0023 59.0018 42.0023H61.0018ZM61.3204 48.179C61.4633 47.6455 61.1467 47.0972 60.6133 46.9542L58.6814 46.4366C58.148 46.2936 57.5996 46.6102 57.4567 47.1437C57.3137 47.6772 57.6303 48.2255 58.1638 48.3684L60.0956 48.8861C60.6291 49.029 61.1774 48.7124 61.3204 48.179ZM58.956 51.637C59.4343 51.9131 59.5982 52.5247 59.3221 53.003C59.0459 53.4813 58.4343 53.6452 57.956 53.369L56.224 52.369C55.7457 52.0929 55.5818 51.4813 55.858 51.003C56.1341 50.5247 56.7457 50.3608 57.224 50.637L58.956 51.637ZM56.1436 57.1454C56.5341 56.7549 56.5341 56.1217 56.1436 55.7312L54.7294 54.317C54.3389 53.9265 53.7057 53.9265 53.3152 54.317C52.9247 54.7075 52.9247 55.3407 53.3152 55.7312L54.7294 57.1454C55.1199 57.5359 55.7531 57.5359 56.1436 57.1454ZM52.3669 58.9584C52.6431 59.4366 52.4792 60.0482 52.0009 60.3244C51.5226 60.6005 50.911 60.4366 50.6349 59.9584L49.6349 58.2263C49.3587 57.748 49.5226 57.1364 50.0009 56.8603C50.4792 56.5841 51.0908 56.748 51.3669 57.2263L52.3669 58.9584ZM47.177 62.3226C47.7105 62.1796 48.0271 61.6313 47.8841 61.0978L47.3665 59.166C47.2236 58.6325 46.6752 58.3159 46.1417 58.4589C45.6083 58.6018 45.2917 59.1502 45.4346 59.6836L45.9523 61.6155C46.0952 62.1489 46.6436 62.4655 47.177 62.3226ZM42 59C41.4676 59 41.0323 59.4161 41.0017 59.9409C41.0004 59.9617 40.9998 59.9827 40.9998 60.0039V62.0039C40.9998 62.5562 41.4475 63.0039 41.9998 63.0039C42.5322 63.0039 42.9675 62.5878 42.998 62.063C42.9993 62.0422 43 62.0212 43 62V60C43 59.4477 42.5523 59 42 59ZM36.6341 59.1619C36.7771 58.6285 37.3254 58.3119 37.8589 58.4548C38.3924 58.5978 38.7089 59.1461 38.566 59.6796L38.0484 61.6114C37.9054 62.1449 37.3571 62.4615 36.8236 62.3185C36.2902 62.1756 35.9736 61.6272 36.1165 61.0938L36.6341 59.1619ZM34 56.8568C33.5217 56.5806 32.9101 56.7445 32.634 57.2228L31.634 58.9549C31.3579 59.4331 31.5217 60.0447 32 60.3209C32.4783 60.597 33.0899 60.4331 33.3661 59.9549L34.3661 58.2228C34.6422 57.7445 34.4783 57.1329 34 56.8568ZM29.2724 54.3139C29.6629 53.9234 30.2961 53.9234 30.6866 54.3139C31.0771 54.7044 31.0771 55.3376 30.6866 55.7281L29.2724 57.1423C28.8818 57.5328 28.2487 57.5328 27.8582 57.1423C27.4676 56.7518 27.4676 56.1186 27.8582 55.7281L29.2724 54.3139ZM28.1444 51.0001C27.8683 50.5218 27.2567 50.3579 26.7784 50.6341L25.0463 51.6341C24.568 51.9102 24.4042 52.5218 24.6803 53.0001C24.9565 53.4784 25.568 53.6423 26.0463 53.3661L27.7784 52.3661C28.2567 52.09 28.4206 51.4784 28.1444 51.0001ZM25.3219 46.4342C25.8553 46.2913 26.4037 46.6079 26.5466 47.1414C26.6896 47.6748 26.373 48.2232 25.8395 48.3661L23.9077 48.8837C23.3742 49.0267 22.8259 48.7101 22.6829 48.1766C22.54 47.6432 22.8566 47.0948 23.39 46.9519L25.3219 46.4342ZM26.002 43.0012C26.002 42.4489 25.5543 42.0012 25.002 42.0012H23.002C22.4497 42.0012 22.002 42.4489 22.002 43.0012C22.002 43.5535 22.4497 44.0012 23.002 44.0012H25.002C25.5543 44.0012 26.002 43.5535 26.002 43.0012ZM25.8402 37.6358C26.3737 37.7787 26.6902 38.3271 26.5473 38.8605C26.4044 39.394 25.856 39.7106 25.3226 39.5676L23.3907 39.05C22.8572 38.9071 22.5407 38.3587 22.6836 37.8253C22.8265 37.2918 23.3749 36.9752 23.9083 37.1181L25.8402 37.6358ZM28.1453 35.0021C28.4214 34.5238 28.2575 33.9122 27.7792 33.6361L26.0472 32.6361C25.5689 32.36 24.9573 32.5238 24.6812 33.0021C24.405 33.4804 24.5689 34.092 25.0472 34.3681L26.7792 35.3681C27.2575 35.6443 27.8691 35.4804 28.1453 35.0021ZM30.6882 30.2745C31.0787 30.665 31.0787 31.2982 30.6882 31.6887C30.2976 32.0792 29.6645 32.0792 29.274 31.6887L27.8597 30.2745C27.4692 29.8839 27.4692 29.2508 27.8597 28.8603C28.2503 28.4697 28.8834 28.4697 29.274 28.8603L30.6882 30.2745ZM34.0019 29.1465C34.4802 28.8704 34.6441 28.2588 34.368 27.7805L33.368 26.0484C33.0918 25.5701 32.4802 25.4063 32.0019 25.6824C31.5236 25.9585 31.3598 26.5701 31.6359 27.0484L32.6359 28.7805C32.9121 29.2588 33.5236 29.4227 34.0019 29.1465ZM38.5678 26.324C38.7107 26.8574 38.3942 27.4058 37.8607 27.5487C37.3272 27.6917 36.7789 27.3751 36.636 26.8416L36.1183 24.9098C35.9754 24.3763 36.292 23.828 36.8254 23.685C37.3589 23.5421 37.9072 23.8587 38.0502 24.3921L38.5678 26.324ZM42.3385 63.7812C30.7231 63.7812 21.307 54.3651 21.307 42.7498C21.307 31.1344 30.7231 21.7183 42.3385 21.7183C53.9538 21.7183 63.3699 31.1344 63.3699 42.7498C63.3699 54.3651 53.9538 63.7812 42.3385 63.7812Z" fill="#4B4B4B"/>
</g>
<defs>
<filter id="filter0_d_89_2801" x="0.437072" y="0.248486" width="79.8026" height="86.1678" filterUnits="userSpaceOnUse" color-interpolation-filters="sRGB">
<feFlood flood-opacity="0" result="BackgroundImageFix"/>
<feColorMatrix in="SourceAlpha" type="matrix" values="0 0 0 0 0 0 0 0 0 0 0 0 0 0 0 0 0 0 127 0" result="hardAlpha"/>
<feOffset dy="2.51259"/>
<feGaussianBlur stdDeviation="6.28146"/>
<feComposite in2="hardAlpha" operator="out"/>
<feColorMatrix type="matrix" values="0 0 0 0 1 0 0 0 0 1 0 0 0 0 1 0 0 0 0.25 0"/>
<feBlend mode="normal" in2="BackgroundImageFix" result="effect1_dropShadow_89_2801"/>
<feBlend mode="normal" in="SourceGraphic" in2="effect1_dropShadow_89_2801" result="shape"/>
</filter>
</defs>
</svg>
