<svg width="70" height="48" viewBox="0 0 70 48" fill="none" xmlns="http://www.w3.org/2000/svg">
<g id="Group 987786">
<g id="Group 987785" filter="url(#filter0_d_1_610)">
<path id="Union" fill-rule="evenodd" clip-rule="evenodd" d="M24.4488 37.8039H13.9196L13.8672 37.804L13.8149 37.8039H13.7019L13.7025 37.8028C7.47133 37.7154 2.4472 32.6772 2.4472 26.4749C2.4472 20.2578 7.49518 15.2104 13.7468 15.1463C15.5026 6.50623 23.1976 0 32.4245 0C38.3591 0 43.66 2.69158 47.1544 6.91134C48.5713 6.50043 50.0701 6.28006 51.6208 6.28006C60.3959 6.28006 67.5096 13.3371 67.5096 22.0424C67.5096 23.6412 67.2696 25.1845 66.8235 26.6386L66.8443 26.6398C66.737 27.0807 66.5637 27.5336 66.3384 27.9929C65.109 30.9823 62.9811 33.5133 60.2874 35.2556C59.4922 36.0544 58.8168 36.7471 58.4035 37.2801L57.2918 36.7711L57.2189 36.7986L57.536 37.8088H32.2346L32.2371 37.8042H24.4486L24.4488 37.8039Z" fill="white"/>
<path id="Union_2" fill-rule="evenodd" clip-rule="evenodd" d="M34.1413 18.9965H18.8536L18.8543 18.9977C13.7148 19.0559 9.57079 22.41 9.57079 26.539C9.57079 30.6778 13.7344 34.0379 18.8908 34.0807C20.3389 39.8326 26.6859 44.1641 34.2965 44.1641C39.1912 44.1641 43.5633 42.3724 46.4456 39.5635C47.6142 39.837 48.8504 39.9837 50.1294 39.9837C57.3673 39.9837 63.2348 35.2857 63.2348 29.4904C63.2348 28.4262 63.037 27.399 62.6691 26.4311L62.6864 26.4303C61.9456 23.9729 59.1795 20.6329 57.7666 19.1354L57.8418 18.9943H34.1397L34.1413 18.9965Z" fill="white"/>
<path id="Union_3" fill-rule="evenodd" clip-rule="evenodd" d="M34.1438 37.802H16.6129L16.6137 37.8005C10.7196 37.7179 5.96722 32.9523 5.96722 27.0855C5.96722 21.2048 10.742 16.4306 16.6553 16.3699C18.3157 8.19666 25.5946 2.04187 34.3226 2.04187C39.9362 2.04187 44.9503 4.58788 48.2557 8.5794C49.5958 8.19082 51.0133 7.98242 52.4799 7.98242C60.7803 7.98242 67.5091 14.6576 67.5091 22.8919C67.5091 24.4043 67.2821 25.864 66.8601 27.2395L66.8806 27.2407C66.8004 27.5704 66.6728 27.9107 66.5061 28.2585C65.1959 31.6264 62.6885 34.4039 59.5016 36.0776C58.812 36.7342 58.2462 37.2999 57.9097 37.7338L57.7264 37.6499L57.7733 37.8048H34.1423L34.1438 37.802Z" fill="#F3F3F3"/>
<path id="Union_4" fill-rule="evenodd" clip-rule="evenodd" d="M35.7148 18.9953H21.2549L21.2556 18.9963C16.3941 19.0514 12.4743 22.224 12.4743 26.1296C12.4743 30.0444 16.4125 33.2227 21.2898 33.2632C22.6589 38.7047 28.6629 42.8024 35.8623 42.8024C40.4925 42.8024 44.6284 41.1073 47.3547 38.45C48.46 38.7087 49.6291 38.8474 50.8388 38.8474C57.6851 38.8474 63.2351 34.4035 63.2351 28.9218C63.2351 27.9152 63.048 26.9436 62.7001 26.0282L62.7162 26.0274C62.0155 23.7031 59.3991 20.5438 58.0627 19.1273L58.1336 18.9941H35.714L35.7148 18.9953Z" fill="#F3F3F3"/>
<g id="Group 987784">
<ellipse id="Ellipse 21" cx="30.9409" cy="19.0691" rx="1.0584" ry="1.49941" fill="#3F3F3F"/>
<ellipse id="Ellipse 22" cx="39.5847" cy="19.0691" rx="1.0584" ry="1.49941" fill="#3F3F3F"/>
<path id="Vector 1277" d="M31.1174 23.8758C32.6609 25.2282 36.4447 27.0774 39.2318 23.6553" stroke="#3F3F3F" stroke-width="0.882004" stroke-linecap="round"/>
</g>
</g>
</g>
<defs>
<filter id="filter0_d_1_610" x="0.547592" y="0" width="68.8616" height="47.9633" filterUnits="userSpaceOnUse" color-interpolation-filters="sRGB">
<feFlood flood-opacity="0" result="BackgroundImageFix"/>
<feColorMatrix in="SourceAlpha" type="matrix" values="0 0 0 0 0 0 0 0 0 0 0 0 0 0 0 0 0 0 127 0" result="hardAlpha"/>
<feOffset dy="1.89961"/>
<feGaussianBlur stdDeviation="0.949806"/>
<feComposite in2="hardAlpha" operator="out"/>
<feColorMatrix type="matrix" values="0 0 0 0 0 0 0 0 0 0 0 0 0 0 0 0 0 0 0.1 0"/>
<feBlend mode="normal" in2="BackgroundImageFix" result="effect1_dropShadow_1_610"/>
<feBlend mode="normal" in="SourceGraphic" in2="effect1_dropShadow_1_610" result="shape"/>
</filter>
</defs>
</svg>
