<svg width="31" height="30" viewBox="0 0 31 30" fill="none" xmlns="http://www.w3.org/2000/svg">
<path id="Vector" d="M26.2845 9.50415L25.9557 10.2584C25.7152 10.8106 24.9515 10.8106 24.7108 10.2584L24.3821 9.50415C23.7961 8.15929 22.7407 7.08855 21.4236 6.50277L20.4107 6.05229C19.8631 5.80871 19.8631 5.01175 20.4107 4.76816L21.3669 4.34285C22.7179 3.74201 23.7923 2.63164 24.3681 1.2411L24.7057 0.426045C24.9411 -0.142015 25.7256 -0.142015 25.9608 0.426045L26.2984 1.2411C26.8744 2.63164 27.9488 3.74201 29.2997 4.34285L30.2559 4.76816C30.8036 5.01175 30.8036 5.80871 30.2559 6.05229L29.2431 6.50277C27.926 7.08855 26.8705 8.15929 26.2845 9.50415ZM10.6667 2.66667C16.09 2.66667 20.568 6.71416 21.2449 11.9533L24.2456 16.6716C24.4432 16.9823 24.4033 17.4463 23.9457 17.6423L21.3333 18.7613V22.6667C21.3333 24.1395 20.1395 25.3333 18.6667 25.3333H16.0013L16 29.3333H4L4.00033 24.4081C4.00044 22.8336 3.41801 21.3449 2.34067 20.0015C0.876093 18.1751 0 15.8565 0 13.3333C0 7.44229 4.77563 2.66667 10.6667 2.66667ZM26.8713 24.1365L24.6524 22.6572C25.9248 20.7523 26.6667 18.4628 26.6667 16.0001C26.6667 15.3187 26.6099 14.6504 26.5008 14L29.0915 13.3333C29.2504 14.1981 29.3333 15.0893 29.3333 16.0001C29.3333 19.0101 28.4267 21.8083 26.8713 24.1365Z" fill="white"/>
</svg>
