<svg width="298" height="155" viewBox="0 0 298 155" fill="none" xmlns="http://www.w3.org/2000/svg">
<path d="M285.099 28.9223L280.348 19.894H274.646L232.355 93.5455L128.768 125.382L10.9259 82.1414C2.56288 99.2475 13.7769 107.325 20.4293 109.226L105.96 137.736C122.306 151.421 141.281 144.389 148.725 139.162L170.583 132.985C184.522 129.025 215.534 120.155 228.079 116.354C240.623 112.552 247.244 103.682 248.986 99.7227L260.866 77.8648C267.36 65.1936 280.823 39.186 282.723 36.525C284.624 33.8641 285.099 30.3478 285.099 28.9223Z" fill="url(#paint0_linear_62_1638)"/>
<path d="M46.5654 15.6215L11.8779 79.7695C6.94461 88.8928 14.5741 94.975 19.0055 96.8757L54.1681 110.18C70.3239 114.299 105.391 124.341 116.415 131.563C127.439 138.786 137.165 132.672 140.649 128.712C164.408 121.268 213.92 106.094 221.903 104.954C229.886 103.813 236 99.0931 238.059 96.8757L280.349 19.8981C277.023 17.047 278.449 17.047 271.321 15.6215C265.619 14.4811 192.918 35.7371 157.28 46.5076C125.76 34.47 61.4857 10.2046 56.5439 9.44429C51.6022 8.68401 47.8325 13.2457 46.5654 15.6215Z" fill="url(#paint1_linear_62_1638)"/>
<path d="M267.995 11.8223L270.846 17.0491L243.761 69.7931L227.13 94.0267L176.762 104.956L128.77 123.962L77.4518 102.105L28.034 88.3247L19.481 80.722L19.9561 76.9206L20.9065 76.4454L37.0623 66.4669L147.302 110.183L171.536 100.679L225.705 86.8992L267.995 11.8223Z" fill="#E8E6E2"/>
<g filter="url(#filter0_d_62_1638)">
<path d="M127.87 122.025C128.07 121.635 127.161 118.5 126.864 117.313C164.403 100.207 185.31 89.7531 205.267 86.9021C221.233 84.6213 223.799 82.7839 225.225 80.2497C233.936 63.4603 255.921 27.4107 260.862 19.4279C265.619 11.7439 266.648 9.46036 266.154 9.01763C266.132 9.00306 266.111 8.98856 266.089 8.97412C266.113 8.98598 266.134 9.00041 266.154 9.01763C268.381 10.5379 268.936 12.7935 268.465 14.6762L258.011 32.7326L235.203 74.5476C233.461 78.5074 231.402 85.9517 226.175 89.2779C220.902 92.6333 187.792 97.4036 180.083 100.207C169.916 103.904 129.633 121.086 127.87 122.025C127.857 122.051 127.839 122.065 127.815 122.065C127.802 122.065 127.821 122.051 127.87 122.025Z" fill="#BDBDC9"/>
</g>
<g filter="url(#filter1_d_62_1638)">
<path d="M26.6102 82.6237C21.6684 81.1032 19.6409 78.5056 19.9577 77.872L20.4331 75.021C21.1934 78.8224 39.9151 76.9217 48.4682 81.6734L57.0212 85.9499L66.0495 89.2761L83.6308 96.4037L127.346 116.836V121.113C120.06 118.103 103.397 110.944 95.0344 106.382C86.6714 101.821 67.6332 94.0278 59.3969 91.1768C50.052 88.9593 31.5519 84.1443 26.6102 82.6237Z" fill="#C3C1C4"/>
</g>
<path d="M127.822 117.987L169.162 35.7828C244.048 1.95068 265.621 4.89684 267.047 10.5989L224.757 85.6759C187.883 88.3368 144.77 108.326 127.822 117.987Z" fill="url(#paint2_linear_62_1638)"/>
<path d="M19.9556 76.4542C53.4076 80.6357 106.278 107.097 127.819 118.66L169.159 36.4553C114.8 4.90398 74.2834 0.817517 60.8202 2.7182L19.9556 76.4542Z" fill="url(#paint3_linear_62_1638)"/>
<path d="M85.5277 110.657L128.293 129.188L127.343 120.635C126.393 120.001 117.649 115.788 90.2795 104.004C56.0673 89.2736 29.4577 85.4722 24.706 83.5715C20.9047 82.051 19.9543 79.1369 19.9543 77.8699C20.4294 75.3357 20.8095 72.548 18.5287 81.6713C16.2479 90.7945 25.8146 94.0257 30.8831 94.5009L85.5277 110.657Z" fill="url(#paint4_linear_62_1638)"/>
<path d="M127.338 121.587L128.289 129.19C133.357 126.972 146.155 121.587 156.799 117.786C170.104 113.034 216.195 100.204 226.174 98.7788C234.157 97.6384 242.805 80.5639 246.131 72.1693L272.265 19.4253L268.464 12.7729C269.604 15.0538 267.989 18.1582 267.038 19.4253L247.081 56.4886C241.696 66.9424 230.355 88.4201 228.075 90.7009C225.223 93.5519 199.564 98.7788 182.933 101.63C169.629 103.911 140.326 115.885 127.338 121.587Z" fill="url(#paint5_linear_62_1638)"/>
<g style="mix-blend-mode:hue">
<path d="M50.5 0.696777L297.5 13.6968L246 117.697L137 154.697L0 102.697L50.5 0.696777Z" fill="#FFCC00"/>
</g>
<g filter="url(#filter2_d_62_1638)">
<path fill-rule="evenodd" clip-rule="evenodd" d="M148.406 78.9394C141.209 71.9866 140.36 59.0531 146.945 48.0729C153.337 37.414 164.652 32.0674 174.02 34.5751L174.335 34.0294L179.55 37.0406L179.492 37.1413C188.489 43.5096 190.107 57.7405 182.954 69.6671C175.523 82.0591 161.438 87.2708 151.494 81.3077C151.012 81.0185 150.548 80.7084 150.103 80.3785L148.207 79.2837L148.406 78.9394Z" fill="#3DDE42"/>
<ellipse cx="20.994" cy="26.163" rx="20.994" ry="26.163" transform="matrix(-0.857613 -0.514295 -0.514295 0.857613 192.92 45.291)" fill="#1EC520"/>
<ellipse cx="20.5576" cy="26.163" rx="20.5576" ry="26.163" transform="matrix(-0.857613 -0.514295 -0.514295 0.857613 192.171 44.8423)" fill="#5CF24A"/>
<ellipse cx="16.3576" cy="20.3849" rx="16.3576" ry="20.3849" transform="matrix(-0.857613 -0.514295 -0.514295 0.857613 185.972 47.8618)" fill="url(#paint6_linear_62_1638)"/>
<path fill-rule="evenodd" clip-rule="evenodd" d="M150.976 74.4144C143.229 69.7683 141.642 58.1747 147.432 48.5194C153.222 38.8642 164.196 34.8035 171.944 39.4496C172.054 39.5155 172.163 39.5828 172.27 39.6515C164.892 35.5228 154.425 39.7718 148.717 49.2901C143.009 58.8084 144.191 70.0427 151.308 74.6069C151.197 74.5445 151.086 74.4803 150.976 74.4144Z" fill="url(#paint7_linear_62_1638)"/>
<path d="M150.857 60.8073C150.545 63.775 151.054 66.3878 152.303 68.2373C153.552 70.0867 155.471 71.0685 157.761 71.0291C160.05 70.9897 162.581 69.9314 164.958 68.0197C167.334 66.1079 169.422 63.4505 170.895 60.4628C172.368 57.4751 173.143 54.3257 173.099 51.5068C173.055 48.6879 172.195 46.3585 170.652 44.8828C169.109 43.4071 166.972 42.8682 164.573 43.3505C162.174 43.8327 159.65 45.3089 157.395 47.5482L158.907 50.7318C160.411 49.2385 162.094 48.2541 163.694 47.9325C165.293 47.6109 166.719 47.9702 167.748 48.9543C168.776 49.9384 169.35 51.4918 169.38 53.3716C169.409 55.2514 168.892 57.3516 167.91 59.344C166.927 61.3363 165.535 63.1085 163.95 64.3833C162.366 65.6582 160.678 66.3639 159.151 66.3902C157.624 66.4164 156.344 65.7617 155.511 64.5284C154.678 63.2951 154.339 61.5528 154.548 59.5737L150.857 60.8073Z" fill="#40C143"/>
<path d="M158.884 50.7478L158.207 49.6486L158.731 48.4517L159.802 49.217L158.884 50.7478Z" fill="#40C143"/>
<path d="M153.487 58.7393C153.895 58.9944 154.681 59.5046 154.558 59.5046L153.487 60.4231L151.344 59.8108L153.487 58.7393Z" fill="#40C143"/>
<path d="M149.828 59.8387C149.468 62.8071 149.918 65.4443 151.11 67.342C152.302 69.2396 154.168 70.2919 156.42 70.3359C158.672 70.3799 161.185 69.4132 163.568 67.5854C165.951 65.7576 168.073 63.1706 169.604 60.2251C171.135 57.2795 171.991 54.1396 172.038 51.2915C172.086 48.4434 171.323 46.0459 169.867 44.4702C168.411 42.8944 166.344 42.2284 163.985 42.5752C161.627 42.922 159.108 44.2622 156.82 46.3884L158.171 49.7275C159.696 48.3097 161.376 47.4159 162.949 47.1847C164.521 46.9534 165.9 47.3975 166.871 48.4483C167.842 49.4991 168.351 51.0979 168.319 52.9972C168.287 54.8965 167.717 56.9903 166.695 58.9546C165.674 60.9189 164.26 62.644 162.67 63.8629C161.081 65.0818 159.406 65.7265 157.904 65.6971C156.402 65.6678 155.158 64.966 154.363 63.7006C153.568 62.4351 153.268 60.6765 153.508 58.6969L149.828 59.8387Z" fill="#59E550"/>
</g>
<g style="mix-blend-mode:hue">
<path d="M185.46 64.2778C181.156 78.213 168.361 86.9403 154.613 82.6945C140.866 78.4487 135.841 66.715 140.145 52.7798C144.449 38.8447 156.452 27.985 170.199 32.2308C186.136 37.153 190.871 50.7509 185.46 64.2778Z" fill="#FFDB00"/>
</g>
<g style="mix-blend-mode:hue">
<path d="M185.46 64.2778C181.156 78.213 168.361 86.9403 154.613 82.6945C140.866 78.4487 135.841 66.715 140.145 52.7798C144.449 38.8447 156.452 27.985 170.199 32.2308C186.136 37.153 190.871 50.7509 185.46 64.2778Z" fill="#FFDB00"/>
</g>
<g filter="url(#filter3_d_62_1638)">
<path fill-rule="evenodd" clip-rule="evenodd" d="M125.911 35.5999C130.549 31.1193 131.096 22.7845 126.852 15.7085C122.733 8.83956 115.442 5.39407 109.405 7.01013L109.202 6.65846L105.841 8.59896L105.878 8.66384C100.08 12.7678 99.0376 21.9386 103.647 29.6245C108.436 37.6103 117.513 40.9689 123.921 37.1261C124.231 36.9397 124.53 36.7399 124.817 36.5273L126.039 35.8217L125.911 35.5999Z" fill="#3DDE42"/>
<ellipse cx="117.499" cy="21.4176" rx="13.5292" ry="16.8603" transform="rotate(-30.9503 117.499 21.4176)" fill="#1EC520"/>
<ellipse cx="117.741" cy="21.2732" rx="13.248" ry="16.8603" transform="rotate(-30.9503 117.741 21.2732)" fill="#5CF24A"/>
<ellipse cx="117.499" cy="21.4176" rx="10.5413" ry="13.1367" transform="rotate(-30.9503 117.499 21.4176)" fill="url(#paint8_linear_62_1638)"/>
<path fill-rule="evenodd" clip-rule="evenodd" d="M124.255 32.684C129.247 29.6898 130.27 22.2185 126.539 15.9964C122.808 9.77423 115.735 7.15739 110.742 10.1515C110.671 10.194 110.601 10.2374 110.532 10.2816C115.287 7.62094 122.032 10.3591 125.711 16.493C129.389 22.6269 128.628 29.8667 124.041 32.808C124.113 32.7678 124.184 32.7264 124.255 32.684Z" fill="url(#paint9_linear_62_1638)"/>
<path d="M124.332 23.9148C124.533 25.8273 124.205 27.5111 123.4 28.7029C122.595 29.8947 121.358 30.5274 119.883 30.502C118.407 30.4767 116.776 29.7947 115.245 28.5627C113.714 27.3307 112.368 25.6182 111.419 23.6928C110.47 21.7675 109.97 19.7378 109.998 17.9213C110.027 16.1047 110.581 14.6035 111.575 13.6525C112.569 12.7015 113.947 12.3543 115.493 12.6651C117.039 12.9758 118.665 13.9271 120.119 15.3702L119.144 17.4218C118.175 16.4595 117.09 15.8251 116.059 15.6178C115.029 15.4106 114.11 15.6422 113.447 16.2764C112.784 16.9105 112.414 17.9116 112.395 19.123C112.376 20.3344 112.71 21.6879 113.343 22.9718C113.976 24.2557 114.873 25.3977 115.894 26.2193C116.915 27.0409 118.003 27.4957 118.987 27.5126C119.971 27.5295 120.796 27.1076 121.332 26.3128C121.869 25.518 122.088 24.3952 121.954 23.1198L124.332 23.9148Z" fill="#40C143"/>
<path d="M119.159 17.4323L119.595 16.724L119.258 15.9526L118.567 16.4459L119.159 17.4323Z" fill="#40C143"/>
<path d="M122.637 22.582C122.374 22.7464 121.868 23.0753 121.947 23.0753L122.637 23.6671L124.018 23.2726L122.637 22.582Z" fill="#40C143"/>
<path d="M124.995 23.2908C125.227 25.2038 124.937 26.9032 124.169 28.1262C123.401 29.3491 122.198 30.0272 120.747 30.0556C119.295 30.0839 117.677 29.4609 116.141 28.283C114.605 27.1051 113.238 25.438 112.251 23.5398C111.264 21.6416 110.713 19.6181 110.682 17.7827C110.652 15.9473 111.143 14.4023 112.082 13.3868C113.02 12.3714 114.352 11.9422 115.872 12.1657C117.392 12.3892 119.015 13.2528 120.489 14.623L119.619 16.7749C118.636 15.8611 117.553 15.2852 116.54 15.1362C115.526 14.9871 114.638 15.2733 114.012 15.9505C113.387 16.6276 113.059 17.658 113.079 18.8819C113.099 20.1059 113.467 21.4552 114.125 22.7211C114.783 23.9869 115.695 25.0986 116.719 25.8841C117.743 26.6696 118.823 27.0851 119.791 27.0662C120.758 27.0473 121.561 26.595 122.073 25.7795C122.585 24.964 122.779 23.8307 122.624 22.555L124.995 23.2908Z" fill="#59E550"/>
</g>
<g style="mix-blend-mode:hue">
<path d="M102.032 26.1516C104.806 35.1319 113.051 40.7561 121.911 38.02C130.77 35.2838 134.008 27.7223 131.235 18.742C128.461 9.76172 120.726 2.7634 111.867 5.49952C101.596 8.67154 98.5452 17.4345 102.032 26.1516Z" fill="#FFDB00"/>
</g>
<g style="mix-blend-mode:hue">
<path d="M102.032 26.1516C104.806 35.1319 113.051 40.7561 121.911 38.02C130.77 35.2838 134.008 27.7223 131.235 18.742C128.461 9.76172 120.726 2.7634 111.867 5.49952C101.596 8.67154 98.5452 17.4345 102.032 26.1516Z" fill="#FFDB00"/>
</g>
<defs>
<filter id="filter0_d_62_1638" x="118.464" y="4.77395" width="158.557" height="129.891" filterUnits="userSpaceOnUse" color-interpolation-filters="sRGB">
<feFlood flood-opacity="0" result="BackgroundImageFix"/>
<feColorMatrix in="SourceAlpha" type="matrix" values="0 0 0 0 0 0 0 0 0 0 0 0 0 0 0 0 0 0 127 0" result="hardAlpha"/>
<feOffset dy="4.20017"/>
<feGaussianBlur stdDeviation="4.20017"/>
<feComposite in2="hardAlpha" operator="out"/>
<feColorMatrix type="matrix" values="0 0 0 0 0 0 0 0 0 0 0 0 0 0 0 0 0 0 0.2 0"/>
<feBlend mode="normal" in2="BackgroundImageFix" result="effect1_dropShadow_62_1638"/>
<feBlend mode="normal" in="SourceGraphic" in2="effect1_dropShadow_62_1638" result="shape"/>
</filter>
<filter id="filter1_d_62_1638" x="11.5254" y="70.8208" width="124.221" height="62.892" filterUnits="userSpaceOnUse" color-interpolation-filters="sRGB">
<feFlood flood-opacity="0" result="BackgroundImageFix"/>
<feColorMatrix in="SourceAlpha" type="matrix" values="0 0 0 0 0 0 0 0 0 0 0 0 0 0 0 0 0 0 127 0" result="hardAlpha"/>
<feOffset dy="4.20017"/>
<feGaussianBlur stdDeviation="4.20017"/>
<feComposite in2="hardAlpha" operator="out"/>
<feColorMatrix type="matrix" values="0 0 0 0 0 0 0 0 0 0 0 0 0 0 0 0 0 0 0.2 0"/>
<feBlend mode="normal" in2="BackgroundImageFix" result="effect1_dropShadow_62_1638"/>
<feBlend mode="normal" in="SourceGraphic" in2="effect1_dropShadow_62_1638" result="shape"/>
</filter>
<filter id="filter2_d_62_1638" x="136.454" y="29.446" width="58.329" height="61.6849" filterUnits="userSpaceOnUse" color-interpolation-filters="sRGB">
<feFlood flood-opacity="0" result="BackgroundImageFix"/>
<feColorMatrix in="SourceAlpha" type="matrix" values="0 0 0 0 0 0 0 0 0 0 0 0 0 0 0 0 0 0 127 0" result="hardAlpha"/>
<feOffset dx="2.4515" dy="2.4515"/>
<feGaussianBlur stdDeviation="2.4515"/>
<feComposite in2="hardAlpha" operator="out"/>
<feColorMatrix type="matrix" values="0 0 0 0 0 0 0 0 0 0 0 0 0 0 0 0 0 0 0.1 0"/>
<feBlend mode="normal" in2="BackgroundImageFix" result="effect1_dropShadow_62_1638"/>
<feBlend mode="normal" in="SourceGraphic" in2="effect1_dropShadow_62_1638" result="shape"/>
</filter>
<filter id="filter3_d_62_1638" x="99.1838" y="3.70533" width="37.5898" height="39.7509" filterUnits="userSpaceOnUse" color-interpolation-filters="sRGB">
<feFlood flood-opacity="0" result="BackgroundImageFix"/>
<feColorMatrix in="SourceAlpha" type="matrix" values="0 0 0 0 0 0 0 0 0 0 0 0 0 0 0 0 0 0 127 0" result="hardAlpha"/>
<feOffset dx="1.57983" dy="1.57983"/>
<feGaussianBlur stdDeviation="1.57983"/>
<feComposite in2="hardAlpha" operator="out"/>
<feColorMatrix type="matrix" values="0 0 0 0 0 0 0 0 0 0 0 0 0 0 0 0 0 0 0.1 0"/>
<feBlend mode="normal" in2="BackgroundImageFix" result="effect1_dropShadow_62_1638"/>
<feBlend mode="normal" in="SourceGraphic" in2="effect1_dropShadow_62_1638" result="shape"/>
</filter>
<linearGradient id="paint0_linear_62_1638" x1="146.523" y1="19.894" x2="146.523" y2="145.689" gradientUnits="userSpaceOnUse">
<stop stop-color="#1FCBF1"/>
<stop offset="1" stop-color="#3068A3"/>
</linearGradient>
<linearGradient id="paint1_linear_62_1638" x1="145.313" y1="9.35986" x2="145.313" y2="134.914" gradientUnits="userSpaceOnUse">
<stop stop-color="#359BC1"/>
<stop offset="1" stop-color="#40C1E5"/>
</linearGradient>
<linearGradient id="paint2_linear_62_1638" x1="147.304" y1="112.563" x2="267.522" y2="10.4014" gradientUnits="userSpaceOnUse">
<stop stop-color="#EBEBE8"/>
<stop offset="1" stop-color="#E0D8D3"/>
</linearGradient>
<linearGradient id="paint3_linear_62_1638" x1="164.883" y1="38.9158" x2="123.543" y2="73.6032" gradientUnits="userSpaceOnUse">
<stop stop-color="#D0CBC8"/>
<stop offset="0.979707" stop-color="#E1E0DE"/>
</linearGradient>
<linearGradient id="paint4_linear_62_1638" x1="73.6486" y1="96.8763" x2="73.6486" y2="109.706" gradientUnits="userSpaceOnUse">
<stop stop-color="#AAAAB6"/>
<stop offset="1" stop-color="#ABA8B9"/>
</linearGradient>
<linearGradient id="paint5_linear_62_1638" x1="272.265" y1="19.9005" x2="172.955" y2="111.133" gradientUnits="userSpaceOnUse">
<stop offset="0.3" stop-color="#99A8B1"/>
<stop offset="0.575" stop-color="#BDBDBD"/>
<stop offset="1" stop-color="#ACB0CB"/>
</linearGradient>
<linearGradient id="paint6_linear_62_1638" x1="16.3576" y1="0" x2="16.3576" y2="40.7699" gradientUnits="userSpaceOnUse">
<stop stop-color="#9CF98B"/>
<stop offset="1" stop-color="#7AED7C"/>
</linearGradient>
<linearGradient id="paint7_linear_62_1638" x1="158.108" y1="37.5264" x2="158.108" y2="74.6069" gradientUnits="userSpaceOnUse">
<stop stop-color="#005F00"/>
<stop offset="1" stop-color="#44CB41"/>
</linearGradient>
<linearGradient id="paint8_linear_62_1638" x1="117.499" y1="8.28091" x2="117.499" y2="34.5543" gradientUnits="userSpaceOnUse">
<stop stop-color="#9CF98B"/>
<stop offset="1" stop-color="#7AED7C"/>
</linearGradient>
<linearGradient id="paint9_linear_62_1638" x1="119.659" y1="8.91211" x2="119.659" y2="32.808" gradientUnits="userSpaceOnUse">
<stop stop-color="#005F00"/>
<stop offset="1" stop-color="#44CB41"/>
</linearGradient>
</defs>
</svg>
