<svg width="28" height="28" viewBox="0 0 28 28" fill="none" xmlns="http://www.w3.org/2000/svg">
<g id="Frame">
<path id="Vector" d="M21.036 19.3866L26.0325 24.383L24.3826 26.0329L19.3861 21.0365C17.5896 22.4738 15.3112 23.3336 12.8332 23.3336C7.03719 23.3336 2.33319 18.6296 2.33319 12.8336C2.33319 7.03762 7.03719 2.33362 12.8332 2.33362C18.6292 2.33362 23.3332 7.03762 23.3332 12.8336C23.3332 15.3116 22.4734 17.59 21.036 19.3866ZM18.6953 18.5209C20.1219 17.0507 20.9999 15.0452 20.9999 12.8336C20.9999 8.32153 17.3453 4.66695 12.8332 4.66695C8.32111 4.66695 4.66652 8.32153 4.66652 12.8336C4.66652 17.3457 8.32111 21.0003 12.8332 21.0003C15.0447 21.0003 17.0502 20.1224 18.5205 18.6958L18.6953 18.5209Z" fill="#636366"/>
</g>
</svg>
