<svg width="135" height="82" viewBox="0 0 135 82" fill="none" xmlns="http://www.w3.org/2000/svg">
<g id="Group 987816">
<path id="Vector 1282" d="M63.0268 67.0459V79.7282H57.6465" stroke="#3F3F3F" stroke-width="3.84311" stroke-linecap="round"/>
<path id="Vector 1288" d="M78.3564 66.9186L83.9031 78.3236L88.7416 75.9704" stroke="#3F3F3F" stroke-width="3.84311" stroke-linecap="round"/>
<g id="Group 987785" filter="url(#filter0_d_66_3844)">
<path id="Union" fill-rule="evenodd" clip-rule="evenodd" d="M52.5199 61.1843H35.4813L35.3928 61.1845L35.3042 61.1843H35.125L35.1259 61.1827C25.041 61.0411 16.9097 52.8868 16.9097 42.8485C16.9097 32.7863 25.0798 24.6171 35.1981 24.5135C38.04 10.5299 50.4941 0 65.4274 0C75.0325 0 83.6119 4.35632 89.2677 11.186C91.5609 10.5209 93.9869 10.1641 96.4968 10.1641C110.699 10.1641 122.213 21.5858 122.213 35.6752C122.213 38.2628 121.824 40.7603 121.102 43.1137L121.136 43.1156C120.962 43.8283 120.682 44.5602 120.318 45.3027C118.329 50.143 114.884 54.2409 110.522 57.0615C109.236 58.3537 108.143 59.4744 107.475 60.3368L105.676 59.5132C105.636 59.5282 105.596 59.5432 105.557 59.558L106.07 61.1928H65.1199L65.1237 61.1859H52.519L52.5199 61.1843Z" fill="white"/>
<path id="Union_2" fill-rule="evenodd" clip-rule="evenodd" d="M68.2067 30.7516H43.4626L43.4636 30.753C35.1453 30.8472 28.4385 36.2757 28.4385 42.9584C28.4385 49.6572 35.1776 55.0957 43.5235 55.1645C45.8673 64.474 56.1399 71.4844 68.4574 71.4844C76.3794 71.4844 83.4555 68.5846 88.1204 64.0385C90.012 64.4813 92.0131 64.7188 94.0835 64.7188C105.798 64.7188 115.294 57.1151 115.294 47.7355C115.294 46.0127 114.974 44.3499 114.378 42.783L114.406 42.7817C113.207 38.8047 108.731 33.3992 106.444 30.9753L106.565 30.7475H68.204L68.2067 30.7516Z" fill="white"/>
<path id="Union_3" fill-rule="evenodd" clip-rule="evenodd" d="M56.2879 61.1886H39.8366L39.8376 61.1868C30.2981 61.0531 22.6064 53.34 22.6064 43.8446C22.6064 34.327 30.3342 26.6 39.9047 26.5016C42.5922 13.2737 54.3729 3.3125 68.4989 3.3125C77.5842 3.3125 85.6994 7.43306 91.0492 13.8931C93.2179 13.2642 95.5121 12.927 97.8857 12.927C111.32 12.927 122.21 23.7307 122.21 37.0578C122.21 39.5055 121.843 41.8682 121.16 44.0944L121.193 44.0963C121.063 44.6286 120.857 45.1779 120.588 45.7393C118.468 51.1923 114.409 55.6893 109.25 58.3988C108.133 59.4614 107.218 60.377 106.673 61.0793L106.378 60.9441L106.454 61.194H68.2072L68.2101 61.1887H56.2878L56.2879 61.1886Z" fill="#F3F3F3"/>
<path id="Union_4" fill-rule="evenodd" clip-rule="evenodd" d="M70.7548 30.7524H47.3505L47.3514 30.7537C39.483 30.8426 33.1387 35.9775 33.1387 42.2988C33.1387 48.635 39.5129 53.7792 47.4071 53.8444C49.6241 62.6502 59.3408 69.2812 70.9919 69.2812C78.4857 69.2812 85.1793 66.5381 89.5919 62.2374C91.3807 62.656 93.2729 62.8806 95.2307 62.8806C106.311 62.8806 115.294 55.6883 115.294 46.8161C115.294 45.1866 114.991 43.6138 114.428 42.1318L114.455 42.1305C113.321 38.3685 109.086 33.255 106.923 30.9625L107.037 30.7476H70.7515L70.7548 30.7524Z" fill="#F3F3F3"/>
<g id="Group 987784">
<ellipse id="Ellipse 21" cx="63.0245" cy="30.8672" rx="1.71301" ry="2.42676" fill="#3F3F3F"/>
<ellipse id="Ellipse 22" cx="77.0143" cy="30.8672" rx="1.71301" ry="2.42676" fill="#3F3F3F"/>
<path id="Vector 1277" d="M63.3101 38.6469C65.8082 40.8358 71.9322 43.8288 76.4431 38.29" stroke="#3F3F3F" stroke-width="1.42751" stroke-linecap="round"/>
</g>
</g>
<path id="Vector 1284" d="M112.219 30.3618C116.318 28.184 125.285 21.9069 128.36 14.2207" stroke="#3F3F3F" stroke-width="2.30587" stroke-linecap="round"/>
<path id="Vector 1286" d="M22.2896 37.6636C18.1902 39.8414 9.22297 46.1185 6.14848 53.8047" stroke="#3F3F3F" stroke-width="2.30587" stroke-linecap="round"/>
<path id="Vector 1285" d="M128.136 15.2191C127.654 14.6136 127.446 14.0865 126.999 13.4562C126.317 12.4928 126.176 11.2682 126.071 10.1255C125.961 8.93505 126.386 7.90871 127.226 7.06867C127.789 6.50586 128.197 7.36442 128.437 7.86842L128.438 7.87144C128.659 8.33589 128.764 8.80517 128.8 9.29901C128.795 8.60799 128.799 7.52548 128.85 7.0183C128.956 5.97794 129.399 4.56723 130.396 4.06854C131.103 3.71526 132.071 3.88595 132.836 3.88595C133.143 3.88595 133.268 3.99668 133.469 4.21965C133.893 4.69173 134.211 5.15054 134.382 5.76851C134.641 6.70699 134.759 7.87914 134.583 8.84105C134.357 10.0779 133.519 11.0428 132.77 12.0143C132.49 12.3771 132.202 12.7365 131.825 13.0028C131.548 13.1993 131.324 13.4844 131.026 13.645C130.71 13.8149 130.391 13.9642 130.081 14.1424C129.859 14.2707 129.374 14.4357 129.225 14.6524C129.138 14.7793 128.833 14.8656 128.69 14.9609L128.682 14.9665C128.541 15.0602 128.303 15.2191 128.136 15.2191Z" fill="#3F3F3F"/>
<path id="Vector 1287" d="M6.53113 52.2682C7.01274 52.8737 7.22111 53.4008 7.6676 54.0311C8.35 54.9945 8.49103 56.2191 8.59628 57.3618C8.70593 58.5523 8.28097 59.5786 7.44093 60.4186C6.87812 60.9814 6.46996 60.1229 6.23035 59.6189L6.22892 59.6159C6.00811 59.1514 5.90297 58.6821 5.86659 58.1883C5.87241 58.8793 5.8678 59.9618 5.81652 60.469C5.71131 61.5094 5.26818 62.9201 4.2708 63.4188C3.56425 63.772 2.59625 63.6014 1.83103 63.6014C1.52363 63.6014 1.39868 63.4906 1.19826 63.2677C0.773914 62.7956 0.455992 62.3368 0.285314 61.7188C0.0261145 60.7803 -0.092289 59.6082 0.0838356 58.6463C0.310303 57.4094 1.14769 56.4445 1.89714 55.473C2.17699 55.1102 2.46481 54.7508 2.84157 54.4845C3.11949 54.288 3.34294 54.0029 3.64118 53.8423C3.95663 53.6724 4.27636 53.5231 4.58561 53.3449C4.80819 53.2166 5.29287 53.0516 5.44189 52.8349C5.52912 52.708 5.83408 52.6217 5.97707 52.5264L5.98543 52.5208C6.12587 52.4271 6.3641 52.2682 6.53113 52.2682Z" fill="#3F3F3F"/>
</g>
<defs>
<filter id="filter0_d_66_3844" x="13.8352" y="0" width="111.452" height="77.6334" filterUnits="userSpaceOnUse" color-interpolation-filters="sRGB">
<feFlood flood-opacity="0" result="BackgroundImageFix"/>
<feColorMatrix in="SourceAlpha" type="matrix" values="0 0 0 0 0 0 0 0 0 0 0 0 0 0 0 0 0 0 127 0" result="hardAlpha"/>
<feOffset dy="3.07449"/>
<feGaussianBlur stdDeviation="1.53724"/>
<feComposite in2="hardAlpha" operator="out"/>
<feColorMatrix type="matrix" values="0 0 0 0 0 0 0 0 0 0 0 0 0 0 0 0 0 0 0.25 0"/>
<feBlend mode="normal" in2="BackgroundImageFix" result="effect1_dropShadow_66_3844"/>
<feBlend mode="normal" in="SourceGraphic" in2="effect1_dropShadow_66_3844" result="shape"/>
</filter>
</defs>
</svg>
