<svg width="29" height="29" viewBox="0 0 29 29" fill="none" xmlns="http://www.w3.org/2000/svg">
<g id="Frame">
<path id="Vector" d="M17.3606 7.84524C17.6822 8.35417 18.1219 8.73023 18.6797 8.97343L19.343 9.26262C19.789 9.45704 20.1501 9.73014 20.4264 10.0819V12.1411C20.4264 15.3811 17.7998 18.0077 14.5598 18.0077C11.3196 18.0077 8.69305 15.3811 8.69305 12.1411V7.44772C8.69305 4.20766 11.3196 1.58106 14.5598 1.58106C16.2724 1.58106 17.8135 2.31491 18.8861 3.48529L18.6795 3.57537C18.1219 3.81843 17.6822 4.19446 17.3606 4.70346C17.058 5.18246 16.9067 5.7061 16.9067 6.27435C16.9067 6.84261 17.058 7.36625 17.3606 7.84524ZM4.06416 13.3144H6.42956C6.99889 17.2947 10.422 20.3544 14.5598 20.3544C18.6974 20.3544 22.1205 17.2947 22.6899 13.3144H25.0552C24.5142 18.2091 20.6278 22.0955 15.7331 22.6366V27.3944H13.3864V22.6366C8.49168 22.0955 4.60525 18.2091 4.06416 13.3144ZM23.321 10.6084L23.6104 9.9447C24.1261 8.76123 25.0549 7.81898 26.2139 7.3035L27.1052 6.90707C27.5872 6.69272 27.5872 5.99139 27.1052 5.77704L26.2638 5.40277C25.0749 4.87403 24.1295 3.8969 23.6226 2.67323L23.3255 1.95597C23.1185 1.45608 22.4281 1.45608 22.221 1.95597L21.924 2.67323C21.4172 3.8969 20.4717 4.87403 19.2829 5.40277L18.4414 5.77704C17.9595 5.99139 17.9595 6.69272 18.4414 6.90707L19.3328 7.3035C20.4918 7.81898 21.4206 8.76123 21.9363 9.9447L22.2255 10.6084C22.4373 11.0943 23.1094 11.0943 23.321 10.6084Z" fill="#FFDB00"/>
</g>
</svg>
