<svg width="112" height="112" viewBox="0 0 112 112" fill="none" xmlns="http://www.w3.org/2000/svg">
<g id="Frame">
<path id="Vector" d="M49.1328 56.2099C49.3107 56.032 49.3107 55.7435 49.1328 55.5655L13.6738 20.1065C13.4958 19.9285 13.4958 19.64 13.6738 19.462L19.5812 13.5546C19.7591 13.3767 20.0476 13.3767 20.2256 13.5546L55.6846 49.0133C55.8625 49.1912 56.151 49.1912 56.329 49.0133L91.7878 13.5546C91.9658 13.3767 92.2543 13.3767 92.4323 13.5546L98.3396 19.462C98.5176 19.64 98.5176 19.9285 98.3396 20.1065L62.8808 55.5655C62.7028 55.7435 62.7028 56.032 62.8808 56.2099L98.3396 91.6684C98.5176 91.8463 98.5176 92.1348 98.3396 92.3128L92.4323 98.2206C92.2543 98.3985 91.9658 98.3985 91.7878 98.2206L56.329 62.7617C56.151 62.5838 55.8625 62.5838 55.6846 62.7617L20.2256 98.2206C20.0476 98.3985 19.7591 98.3985 19.5812 98.2206L13.6738 92.3128C13.4958 92.1348 13.4958 91.8463 13.6738 91.6684L49.1328 56.2099Z" fill="#1C1C1E" stroke="#1C1C1E" stroke-width="11.4294"/>
</g>
</svg>
