<svg xmlns="http://www.w3.org/2000/svg" width="72" height="72" viewBox="0 0 72 72" fill="none">
  <circle cx="36" cy="36" r="35.1707" fill="#1C1C1E" stroke="#F4F4F4" stroke-width="1.65869"/>
  <g filter="url(#filter0_d_66_3415)">
    <path fill-rule="evenodd" clip-rule="evenodd" d="M28.3131 46.8451H20.6503L20.6071 46.8452L20.564 46.8451H20.4863L20.4867 46.8444C15.9494 46.7805 12.291 43.1117 12.291 38.5953C12.291 34.0679 15.9672 30.3923 20.5198 30.3458C21.7981 24.0537 27.4018 19.3154 34.1211 19.3154C38.443 19.3154 42.3034 21.2757 44.8481 24.349C45.8799 24.0497 46.9713 23.8892 48.1006 23.8892C54.4907 23.8892 59.6709 29.0282 59.6709 35.3675C59.6709 36.5316 59.4962 37.6552 59.1714 38.714L59.1861 38.7149C59.1085 39.0339 58.9834 39.3615 58.8208 39.6938C57.9257 41.8745 56.3741 43.7207 54.4095 44.9908C53.8312 45.5717 53.3401 46.0755 53.0395 46.4632L52.2307 46.0928L52.1765 46.1132L52.407 46.8477H33.9824L33.9837 46.8453H28.313L28.3131 46.8451Z" fill="white"/>
    <path fill-rule="evenodd" clip-rule="evenodd" d="M30.6946 33.1508H24.2393L24.2398 33.1516C20.4971 33.194 17.4795 35.6364 17.4795 38.6432C17.4795 41.657 20.5112 44.1038 24.266 44.1351C25.3207 48.3235 29.9425 51.4775 35.4844 51.4775C39.0492 51.4775 42.2334 50.1725 44.3323 48.1266C45.1831 48.3256 46.0831 48.4324 47.0142 48.4324C52.2849 48.4324 56.5576 45.0113 56.5576 40.7911C56.5576 40.0162 56.4135 39.2682 56.1457 38.5634L56.1578 38.5628C55.6186 36.7741 53.6056 34.343 52.5764 33.2519L52.631 33.1493H35.3711L35.3719 33.1506H30.6944L30.6946 33.1508Z" fill="white"/>
    <path fill-rule="evenodd" clip-rule="evenodd" d="M30.0101 46.8425H22.6074L22.6079 46.8416C18.316 46.7813 14.8555 43.311 14.8555 39.0388C14.8555 34.7563 18.3328 31.2796 22.6391 31.2357C23.8489 25.2848 29.149 20.8037 35.5042 20.8037C39.5916 20.8037 43.2426 22.6574 45.6496 25.5635C46.6254 25.2805 47.6577 25.1288 48.7256 25.1288C54.77 25.1288 59.6699 29.9897 59.6699 35.986C59.6699 37.0872 59.5047 38.1501 59.1974 39.1517L59.212 39.1525C59.1539 39.3913 59.0617 39.6378 58.9412 39.8896C57.9874 42.3445 56.1603 44.369 53.8377 45.5884C53.3359 46.0662 52.9242 46.4778 52.6793 46.7937L52.5469 46.7331L52.5813 46.8464H35.373L35.3748 46.8431H30.0098L30.0101 46.8425Z" fill="#F3F3F3"/>
    <path fill-rule="evenodd" clip-rule="evenodd" d="M37.1789 33.1493L37.179 33.1491H25.9893L25.9901 33.1504C22.4496 33.1901 19.5947 35.5006 19.5947 38.3449C19.5947 41.1956 22.4625 43.5101 26.0141 43.5396C27.011 47.5022 31.3833 50.4863 36.626 50.4863C39.9972 50.4863 43.0086 49.2524 44.9939 47.3178C45.7989 47.5062 46.6505 47.6073 47.5315 47.6073C52.517 47.6073 56.5586 44.3713 56.5586 40.3794C56.5586 39.6465 56.4223 38.939 56.169 38.2724L56.1813 38.2718C55.6711 36.5792 53.7657 34.2786 52.7926 33.2471L52.8446 33.1493H37.1789Z" fill="#F3F3F3"/>
    <ellipse cx="33.0422" cy="33.2022" rx="0.770735" ry="1.09187" fill="#3F3F3F"/>
    <ellipse cx="39.3371" cy="33.2022" rx="0.770735" ry="1.09187" fill="#3F3F3F"/>
    <path d="M33.1709 36.7026C34.2949 37.6874 37.0503 39.034 39.0799 36.542" stroke="#3F3F3F" stroke-width="0.731484" stroke-linecap="round"/>
  </g>
  <defs>
    <filter id="filter0_d_66_3415" x="10.7156" y="19.3154" width="50.5307" height="35.313" filterUnits="userSpaceOnUse" color-interpolation-filters="sRGB">
      <feFlood flood-opacity="0" result="BackgroundImageFix"/>
      <feColorMatrix in="SourceAlpha" type="matrix" values="0 0 0 0 0 0 0 0 0 0 0 0 0 0 0 0 0 0 127 0" result="hardAlpha"/>
      <feOffset dy="1.57543"/>
      <feGaussianBlur stdDeviation="0.787716"/>
      <feComposite in2="hardAlpha" operator="out"/>
      <feColorMatrix type="matrix" values="0 0 0 0 0 0 0 0 0 0 0 0 0 0 0 0 0 0 0.1 0"/>
      <feBlend mode="normal" in2="BackgroundImageFix" result="effect1_dropShadow_66_3415"/>
      <feBlend mode="normal" in="SourceGraphic" in2="effect1_dropShadow_66_3415" result="shape"/>
    </filter>
  </defs>
</svg>