<svg width="389" height="236" viewBox="0 0 389 236" fill="none" xmlns="http://www.w3.org/2000/svg">
<path d="M206.426 193.184V229.727H221.929" stroke="#3F3F3F" stroke-width="11.0737" stroke-linecap="round"/>
<path d="M162.255 192.818L146.272 225.68L132.331 218.9" stroke="#3F3F3F" stroke-width="11.0737" stroke-linecap="round"/>
<g filter="url(#filter0_d_70_7092)">
<path fill-rule="evenodd" clip-rule="evenodd" d="M236.705 176.302H286.824L286.821 176.296C315.88 175.888 339.31 152.392 339.31 123.467C339.31 94.4741 315.769 70.9354 286.614 70.6364C278.426 30.3425 242.54 0 199.51 0C171.834 0 147.112 12.5524 130.816 32.2316C124.209 30.3155 117.219 29.2879 109.988 29.2879C69.0645 29.2879 35.8896 62.1987 35.8896 102.796C35.8896 110.252 37.0086 117.449 39.089 124.23L38.9909 124.236C39.4921 126.296 40.3025 128.411 41.3557 130.557C47.0894 144.493 57.011 156.293 69.5692 164.416C73.2779 168.141 76.4276 171.372 78.355 173.857L83.539 171.484C83.5962 171.505 83.6535 171.527 83.7108 171.549C83.767 171.57 83.8232 171.591 83.8794 171.612L82.4012 176.322H200.395L200.385 176.303H236.706L236.705 176.302Z" fill="white"/>
<path fill-rule="evenodd" clip-rule="evenodd" d="M221.458 88.6012H262.798L262.795 88.6058C286.764 88.8772 306.089 104.519 306.089 123.775C306.089 143.077 286.672 158.747 262.624 158.946C255.87 185.77 226.271 205.97 190.779 205.97C167.95 205.97 147.56 197.613 134.118 184.511C128.668 185.787 122.904 186.471 116.94 186.471C83.1855 186.471 55.8222 164.561 55.8222 137.535C55.8222 132.571 56.7451 127.78 58.461 123.266L58.3804 123.262C61.8349 111.803 74.7333 96.2283 81.3225 89.2437L80.9736 88.5885H191.509L191.502 88.5991H221.459L221.458 88.6012Z" fill="white"/>
<path fill-rule="evenodd" clip-rule="evenodd" d="M191.49 176.305H273.246L273.243 176.3C300.731 175.915 322.894 153.69 322.894 126.33C322.894 98.9051 300.627 76.6401 273.05 76.3568C265.307 38.2415 231.361 9.53906 190.658 9.53906C164.48 9.53906 141.097 21.4116 125.682 40.0251C119.432 38.2126 112.821 37.2405 105.981 37.2405C67.2716 37.2405 35.8916 68.3707 35.8916 106.772C35.8916 113.825 36.9503 120.634 38.9187 127.049L38.8243 127.054C39.1975 128.588 39.7904 130.171 40.5652 131.789C46.6744 147.5 58.3691 160.456 73.2346 168.263C76.4518 171.326 79.0912 173.965 80.6607 175.989L81.5121 175.6L81.2936 176.321H191.498L191.49 176.305Z" fill="#F3F3F3"/>
<path fill-rule="evenodd" clip-rule="evenodd" d="M184.162 88.6068H250.94L250.997 88.6068L251.054 88.6068H251.599L251.597 88.6102C274.268 88.8668 292.549 103.662 292.549 121.877C292.549 140.133 274.183 154.956 251.437 155.144C245.05 180.519 217.051 199.627 183.478 199.627C161.885 199.627 142.597 191.722 129.882 179.329C124.728 180.535 119.276 181.182 113.635 181.182C81.7071 181.182 55.8243 160.458 55.8243 134.894C55.8243 130.199 56.6974 125.666 58.3207 121.396L58.2427 121.392C61.5105 110.553 73.7128 95.8189 79.9451 89.213L79.6156 88.5945H184.171L184.162 88.6068Z" fill="#F3F3F3"/>
<ellipse cx="4.93592" cy="6.99255" rx="4.93592" ry="6.99255" transform="matrix(-1 0 0 1 211.368 81.9453)" fill="#3F3F3F"/>
<ellipse cx="4.93592" cy="6.99255" rx="4.93592" ry="6.99255" transform="matrix(-1 0 0 1 171.058 81.9453)" fill="#3F3F3F"/>
<path d="M205.609 111.355C198.411 117.662 180.765 126.287 167.767 110.327" stroke="#3F3F3F" stroke-width="4.11327" stroke-linecap="round"/>
</g>
<path d="M64.6838 87.482C52.8719 81.207 27.0334 63.12 18.1745 40.9727" stroke="#3F3F3F" stroke-width="6.6442" stroke-linecap="round"/>
<path d="M323.807 108.522C335.619 114.797 361.458 132.884 370.317 155.031" stroke="#3F3F3F" stroke-width="6.6442" stroke-linecap="round"/>
<path d="M18.819 43.8477C20.2068 42.1031 20.8072 40.5842 22.0937 38.7679C24.06 35.9919 24.4664 32.4634 24.7696 29.1708C25.0856 25.7407 23.8611 22.7833 21.4406 20.3628C19.8189 18.7411 18.6428 21.215 17.9524 22.6672L17.9482 22.6759C17.312 24.0142 17.009 25.3664 16.9042 26.7894C16.921 24.7983 16.9077 21.6791 16.7599 20.2177C16.4568 17.2199 15.1799 13.1551 12.3061 11.7181C10.2702 10.7002 7.48095 11.192 5.27601 11.192C4.39025 11.192 4.03023 11.5111 3.45274 12.1535C2.23001 13.5138 1.31394 14.8358 0.822145 16.6165C0.0752792 19.3207 -0.265892 22.6981 0.2416 25.4698C0.894148 29.0337 3.30703 31.8141 5.46651 34.6134C6.27287 35.6587 7.10222 36.6943 8.18781 37.4617C8.98863 38.0278 9.63248 38.8494 10.4918 39.3122C11.4008 39.8016 12.3221 40.2319 13.2132 40.7454C13.8545 41.115 15.2511 41.5903 15.6805 42.2149C15.9318 42.5805 16.8105 42.8292 17.2225 43.1039L17.2466 43.1199C17.6513 43.3898 18.3377 43.8477 18.819 43.8477Z" fill="#3F3F3F"/>
<path d="M369.216 150.603C367.828 152.347 367.228 153.866 365.941 155.682C363.975 158.458 363.569 161.987 363.265 165.279C362.949 168.71 364.174 171.667 366.594 174.087C368.216 175.709 369.392 173.235 370.083 171.783L370.087 171.774C370.723 170.436 371.026 169.084 371.131 167.661C371.114 169.652 371.127 172.771 371.275 174.233C371.578 177.23 372.855 181.295 375.729 182.732C377.765 183.75 380.554 183.258 382.759 183.258C383.645 183.258 384.005 182.939 384.582 182.297C385.805 180.936 386.721 179.614 387.213 177.834C387.96 175.13 388.301 171.752 387.793 168.98C387.141 165.416 384.728 162.636 382.568 159.837C381.762 158.792 380.933 157.756 379.847 156.989C379.046 156.422 378.402 155.601 377.543 155.138C376.634 154.649 375.713 154.218 374.822 153.705C374.18 153.335 372.784 152.86 372.354 152.235C372.103 151.87 371.224 151.621 370.812 151.346L370.788 151.33C370.384 151.06 369.697 150.603 369.216 150.603Z" fill="#3F3F3F"/>
<defs>
<filter id="filter0_d_70_7092" x="27.0307" y="0" width="321.138" height="223.688" filterUnits="userSpaceOnUse" color-interpolation-filters="sRGB">
<feFlood flood-opacity="0" result="BackgroundImageFix"/>
<feColorMatrix in="SourceAlpha" type="matrix" values="0 0 0 0 0 0 0 0 0 0 0 0 0 0 0 0 0 0 127 0" result="hardAlpha"/>
<feOffset dy="8.85893"/>
<feGaussianBlur stdDeviation="4.42946"/>
<feComposite in2="hardAlpha" operator="out"/>
<feColorMatrix type="matrix" values="0 0 0 0 0 0 0 0 0 0 0 0 0 0 0 0 0 0 0.25 0"/>
<feBlend mode="normal" in2="BackgroundImageFix" result="effect1_dropShadow_70_7092"/>
<feBlend mode="normal" in="SourceGraphic" in2="effect1_dropShadow_70_7092" result="shape"/>
</filter>
</defs>
</svg>
