<svg width="132" height="237" viewBox="0 0 132 237" fill="none" xmlns="http://www.w3.org/2000/svg">
<g clip-path="url(#clip0_73_1181)">
<path d="M44.3457 185.76C44.3272 184.369 43.5873 183.088 42.3919 182.376L23.9838 171.42C21.0508 169.674 21.5112 165.293 24.7432 164.195L45.0271 157.305C46.3443 156.857 47.3344 155.758 47.6417 154.401L52.3737 133.508C53.1277 130.179 57.4366 129.263 59.4794 131.998L72.3003 149.16C73.1328 150.274 74.4847 150.876 75.87 150.749L97.2026 148.793C100.602 148.482 102.804 152.297 100.835 155.085L88.4747 172.581C87.6721 173.717 87.5174 175.189 88.0663 176.467L96.5184 196.151C97.8651 199.288 94.9175 202.561 91.6575 201.55L71.198 195.202C69.8694 194.789 68.422 195.097 67.3759 196.014L51.2669 210.135C48.7001 212.385 44.6758 210.594 44.6305 207.181L44.3457 185.76Z" fill="url(#paint0_linear_73_1181)"/>
</g>
<path d="M57.5001 131.5L57.5001 0" stroke="#FFDB00" stroke-width="2"/>
<defs>
<linearGradient id="paint0_linear_73_1181" x1="105.838" y1="148.001" x2="30.6388" y2="191.418" gradientUnits="userSpaceOnUse">
<stop stop-color="#FFDB00"/>
<stop offset="1" stop-color="#F5F5F5"/>
</linearGradient>
<clipPath id="clip0_73_1181">
<rect x="83.5692" y="105.431" width="96" height="96" rx="2" transform="rotate(60 83.5692 105.431)" fill="white"/>
</clipPath>
</defs>
</svg>
