<svg width="82" height="278" viewBox="0 0 82 278" fill="none" xmlns="http://www.w3.org/2000/svg">
<path d="M39.1236 255.981C38.0473 255.099 36.5904 254.84 35.2764 255.297L23.3126 259.454C20.0884 260.574 17.0327 257.401 18.2735 254.221L22.8777 242.422C23.3834 241.126 23.1794 239.661 22.3391 238.552L14.689 228.459C12.6272 225.738 14.7006 221.852 18.1082 222.049L30.7521 222.782C32.1409 222.863 33.4718 222.216 34.2665 221.074L41.5021 210.679C43.4521 207.878 47.7893 208.649 48.6544 211.95L51.8646 224.202C52.2172 225.548 53.2437 226.613 54.5752 227.016L66.6971 230.686C69.9641 231.674 70.5712 236.038 67.6983 237.881L57.0386 244.72C55.8677 245.471 55.1713 246.777 55.1994 248.167L55.4556 260.83C55.5247 264.243 51.5627 266.168 48.922 264.006L39.1236 255.981Z" fill="url(#paint0_linear_73_1182)"/>
<path d="M44 211L44 0" stroke="#FFDB00" stroke-width="2"/>
<defs>
<linearGradient id="paint0_linear_73_1182" x1="46.4562" y1="203.562" x2="35.376" y2="265.9" gradientUnits="userSpaceOnUse">
<stop stop-color="#FFDB00"/>
<stop offset="1" stop-color="#F5F5F5"/>
</linearGradient>
</defs>
</svg>
