<svg width="49" height="37" viewBox="0 0 49 37" fill="none" xmlns="http://www.w3.org/2000/svg">
<g id="Group 987825">
<g id="Group 987796">
<path id="Vector 1282" d="M25.2853 19.7861V22.9882H23.9269" stroke="#3F3F3F" stroke-width="0.970322" stroke-linecap="round"/>
<path id="Vector 1288" d="M29.1558 19.7537L30.5563 22.6332L31.7779 22.0391" stroke="#3F3F3F" stroke-width="0.970322" stroke-linecap="round"/>
<g id="Group 987785" filter="url(#filter0_d_49_2602)">
<g id="Union">
<path fill-rule="evenodd" clip-rule="evenodd" d="M25.8147 18.3081H18.2408L18.2413 18.3073C15.6948 18.2718 13.6415 16.2129 13.6415 13.6782C13.6415 11.1375 15.7045 9.07491 18.2593 9.04889C18.9768 5.5182 22.1212 2.8595 25.8917 2.8595C28.3164 2.8595 30.4822 3.959 31.9102 5.68283C32.4893 5.5148 33.102 5.42468 33.7359 5.42468C37.3218 5.42468 40.2287 8.30847 40.2287 11.8658C40.2287 12.5193 40.1306 13.15 39.9483 13.7443L39.9565 13.7448C39.9129 13.9237 39.8428 14.1074 39.7517 14.2937C39.2494 15.5171 38.3791 16.5528 37.277 17.2655C36.9521 17.5919 36.6761 17.875 36.5072 18.0928L36.0528 17.8847L36.0233 17.8959L36.1531 18.3094H25.8139L25.8147 18.3081Z" fill="white"/>
<path d="M25.8147 18.3081L25.9433 18.3777L26.0603 18.1618H25.8147V18.3081ZM18.2408 18.3081L18.1122 18.2385L17.9954 18.4543H18.2408V18.3081ZM18.2413 18.3073L18.37 18.3769L18.4849 18.1643L18.2433 18.161L18.2413 18.3073ZM18.2593 9.04889L18.2608 9.19518L18.3791 9.19398L18.4026 9.07803L18.2593 9.04889ZM31.9102 5.68283L31.7975 5.77616L31.8588 5.85008L31.9509 5.82333L31.9102 5.68283ZM39.9483 13.7443L39.8084 13.7014L39.7538 13.8795L39.9397 13.8903L39.9483 13.7443ZM39.9565 13.7448L40.0986 13.7793L40.1401 13.6089L39.965 13.5987L39.9565 13.7448ZM39.7517 14.2937L39.6199 14.2293L39.6163 14.2382L39.7517 14.2937ZM37.277 17.2655L37.1976 17.1427L37.1844 17.1512L37.1733 17.1623L37.277 17.2655ZM36.5072 18.0928L36.4463 18.2258L36.5518 18.2741L36.6228 18.1825L36.5072 18.0928ZM36.0528 17.8847L36.1137 17.7517L36.0583 17.7264L36.0013 17.7478L36.0528 17.8847ZM36.0233 17.8959L35.9718 17.7589L35.8423 17.8077L35.8837 17.9397L36.0233 17.8959ZM36.1531 18.3094V18.4557H36.3523L36.2927 18.2656L36.1531 18.3094ZM25.8139 18.3094L25.6853 18.2397L25.5683 18.4557H25.8139V18.3094ZM25.8147 18.1618H18.2408V18.4543H25.8147V18.1618ZM18.3695 18.3776L18.37 18.3769L18.1126 18.2377L18.1122 18.2385L18.3695 18.3776ZM18.2433 18.161C15.7756 18.1266 13.7878 16.1317 13.7878 13.6782H13.4952C13.4952 16.294 15.6139 18.4169 18.2392 18.4535L18.2433 18.161ZM13.7878 13.6782C13.7878 11.2189 15.785 9.2204 18.2608 9.19518L18.2578 8.90261C15.6239 8.92943 13.4952 11.0562 13.4952 13.6782H13.7878ZM18.4026 9.07803C19.1064 5.61495 22.1914 3.00579 25.8917 3.00579V2.7132C22.0511 2.7132 18.8471 5.42146 18.1159 9.01976L18.4026 9.07803ZM25.8917 3.00579C28.2712 3.00579 30.3963 4.08463 31.7975 5.77616L32.0228 5.5895C30.5681 3.83337 28.3615 2.7132 25.8917 2.7132V3.00579ZM31.9509 5.82333C32.517 5.65911 33.1159 5.57098 33.7359 5.57098V5.27839C33.0881 5.27839 32.4617 5.37049 31.8694 5.54233L31.9509 5.82333ZM33.7359 5.57098C37.2421 5.57098 40.0824 8.39037 40.0824 11.8658H40.375C40.375 8.22657 37.4015 5.27839 33.7359 5.27839V5.57098ZM40.0824 11.8658C40.0824 12.5045 39.9866 13.1208 39.8084 13.7014L40.0881 13.7872C40.2747 13.1792 40.375 12.534 40.375 11.8658H40.0824ZM39.9397 13.8903L39.9479 13.8908L39.965 13.5987L39.9568 13.5982L39.9397 13.8903ZM39.8143 13.7102C39.7738 13.8766 39.7078 14.0503 39.6202 14.2295L39.8831 14.358C39.9777 14.1645 40.052 13.9707 40.0986 13.7793L39.8143 13.7102ZM39.6163 14.2382C39.1256 15.4335 38.275 16.4459 37.1976 17.1427L37.3565 17.3884C38.4832 16.6597 39.3733 15.6007 39.887 14.3493L39.6163 14.2382ZM37.1733 17.1623C36.8501 17.487 36.5671 17.7768 36.3916 18.0032L36.6228 18.1825C36.785 17.9732 37.054 17.6969 37.3807 17.3688L37.1733 17.1623ZM36.5681 17.9598L36.1137 17.7517L35.9919 18.0178L36.4463 18.2258L36.5681 17.9598ZM36.0013 17.7478L35.9718 17.7589L36.0748 18.0328L36.1043 18.0217L36.0013 17.7478ZM35.8837 17.9397L36.0135 18.3532L36.2927 18.2656L36.1629 17.852L35.8837 17.9397ZM36.1531 18.1631H25.8139V18.4557H36.1531V18.1631ZM25.9426 18.3791L25.9433 18.3777L25.686 18.2384L25.6853 18.2397L25.9426 18.3791Z" fill="#8E8E93"/>
</g>
<path id="Union_2" fill-rule="evenodd" clip-rule="evenodd" d="M23.9687 10.623H20.3451L20.3455 10.6235C18.2453 10.6473 16.552 12.0179 16.552 13.7052C16.552 15.3965 18.2536 16.7697 20.3608 16.787C20.9532 19.1368 23.5465 20.9061 26.6558 20.9061C28.6561 20.9061 30.4428 20.1739 31.6206 19.026C32.0982 19.1377 32.6034 19.1977 33.126 19.1977C36.0837 19.1977 38.4814 17.2779 38.4814 14.9097C38.4814 14.4748 38.4005 14.0549 38.2502 13.6594L38.2573 13.659C37.9545 12.6547 36.8238 11.2895 36.2466 10.6777L36.2774 10.6199H26.5918L26.5932 10.622H23.9681L23.9687 10.623Z" fill="white"/>
<path id="Union_3" fill-rule="evenodd" clip-rule="evenodd" d="M26.5502 18.3092H19.4309L19.4313 18.3084C17.0227 18.2748 15.0806 16.3273 15.0806 13.9298C15.0806 11.5266 17.032 9.57548 19.4487 9.55098C20.1278 6.2119 23.1019 3.69763 26.6679 3.69763C28.9613 3.69763 31.0097 4.73746 32.3605 6.36779C32.9081 6.20895 33.4875 6.12376 34.0869 6.12376C37.4788 6.12376 40.2284 8.85152 40.2284 12.2164C40.2284 12.8343 40.1357 13.4308 39.9633 13.9928L39.9715 13.9933C39.9389 14.1274 39.887 14.2659 39.8193 14.4074C39.284 15.7848 38.2588 16.9207 36.9556 17.6049C36.674 17.873 36.443 18.104 36.3056 18.2812L36.2317 18.2473L36.2512 18.3117H26.5946L26.5956 18.3098C26.5874 18.3097 26.5793 18.3096 26.5712 18.3095C26.5642 18.3094 26.5572 18.3093 26.5502 18.3092Z" fill="white"/>
<path id="Union_4" fill-rule="evenodd" clip-rule="evenodd" d="M27.2365 10.6202H21.4124L21.3791 10.6201L21.3457 10.6202H21.3263L21.3264 10.6204C19.3399 10.6429 17.7382 11.9393 17.7382 13.5353C17.7382 15.1352 19.3477 16.434 21.341 16.4504C21.9007 18.6737 24.354 20.348 27.2958 20.348C29.1884 20.348 30.8789 19.655 31.993 18.5686C32.4443 18.6741 32.9217 18.7307 33.4156 18.7307C36.2133 18.7307 38.4812 16.9148 38.4812 14.6747C38.4812 14.2636 38.4048 13.8668 38.2628 13.4929L38.2692 13.4926C37.983 12.5429 36.9141 11.2522 36.3679 10.6732L36.397 10.6186H27.2355L27.2365 10.6202Z" fill="white"/>
<g id="Group 987784">
<ellipse id="Ellipse 21" cx="25.2847" cy="10.651" rx="0.432506" ry="0.612717" fill="#3F3F3F"/>
<ellipse id="Ellipse 22" cx="28.8167" cy="10.6509" rx="0.432506" ry="0.612717" fill="#3F3F3F"/>
<path id="Vector 1277" d="M25.3569 12.6155C25.9877 13.1681 27.5339 13.9238 28.6728 12.5254" stroke="#3F3F3F" stroke-width="0.360422" stroke-linecap="round"/>
</g>
</g>
<path id="Vector 1284" d="M37.7053 10.5241C38.7403 9.97423 41.0044 8.38937 41.7807 6.44873" stroke="#3F3F3F" stroke-width="0.582193" stroke-linecap="round"/>
<path id="Vector 1286" d="M15 12.3679C13.965 12.9177 11.7009 14.5026 10.9246 16.4432" stroke="#3F3F3F" stroke-width="0.582193" stroke-linecap="round"/>
<path id="Vector 1285" d="M41.7239 6.70082C41.6024 6.54795 41.5497 6.41485 41.437 6.2557C41.2647 6.01246 41.2291 5.70328 41.2025 5.41476C41.1749 5.1142 41.2821 4.85507 41.4942 4.64297C41.6363 4.50087 41.7394 4.71764 41.7999 4.84489L41.8003 4.84566C41.856 4.96292 41.8826 5.08141 41.8917 5.2061C41.8903 5.03162 41.8914 4.75831 41.9044 4.63025C41.9309 4.36758 42.0428 4.0114 42.2946 3.88549C42.473 3.79629 42.7174 3.83939 42.9106 3.83939C42.9883 3.83939 43.0198 3.86735 43.0704 3.92364C43.1776 4.04283 43.2578 4.15867 43.3009 4.3147C43.3664 4.55165 43.3963 4.8476 43.3518 5.09047C43.2946 5.40275 43.0832 5.64638 42.894 5.89167C42.8233 5.98326 42.7506 6.074 42.6555 6.14125C42.5853 6.19085 42.5289 6.26285 42.4536 6.3034C42.374 6.34628 42.2932 6.38398 42.2152 6.42898C42.159 6.46137 42.0366 6.50302 41.999 6.55774C41.9769 6.58978 41.8999 6.61157 41.8638 6.63564L41.8617 6.63705C41.8263 6.6607 41.7661 6.70082 41.7239 6.70082Z" fill="#3F3F3F"/>
<path id="Vector 1287" d="M11.0212 16.0549C11.1428 16.2078 11.1954 16.3409 11.3081 16.5C11.4804 16.7433 11.516 17.0525 11.5426 17.341C11.5703 17.6415 11.463 17.9007 11.2509 18.1128C11.1088 18.2549 11.0057 18.0381 10.9452 17.9108L10.9449 17.9101C10.8891 17.7928 10.8626 17.6743 10.8534 17.5496C10.8549 17.7241 10.8537 17.9974 10.8407 18.1255C10.8142 18.3882 10.7023 18.7443 10.4505 18.8702C10.2721 18.9594 10.0277 18.9164 9.83447 18.9164C9.75686 18.9164 9.72531 18.8884 9.67471 18.8321C9.56757 18.7129 9.4873 18.5971 9.4442 18.441C9.37876 18.2041 9.34886 17.9081 9.39333 17.6653C9.45051 17.353 9.66194 17.1094 9.85116 16.8641C9.92182 16.7725 9.99449 16.6817 10.0896 16.6145C10.1598 16.5649 10.2162 16.4929 10.2915 16.4523C10.3711 16.4095 10.4519 16.3718 10.53 16.3268C10.5862 16.2944 10.7085 16.2527 10.7462 16.198C10.7682 16.166 10.8452 16.1442 10.8813 16.1201L10.8834 16.1187C10.9188 16.095 10.979 16.0549 11.0212 16.0549Z" fill="#3F3F3F"/>
</g>
<g id="Group 987797">
<g id="Group 987775">
<path id="Vector 1275" d="M44.6265 18.7582L44.0009 17.5696H43.2502L37.6824 27.2663L24.0445 31.4577L8.52979 25.7648C7.42875 28.017 8.90515 29.0805 9.78098 29.3307L21.0416 33.0843C23.1937 34.886 25.6919 33.9601 26.672 33.2719L29.5497 32.4587C31.3848 31.9373 35.4678 30.7696 37.1194 30.2691C38.7709 29.7686 39.6426 28.6009 39.872 28.0795L41.4359 25.2018C42.2909 23.5336 44.0634 20.1095 44.3137 19.7592C44.5639 19.4088 44.6265 18.9459 44.6265 18.7582Z" fill="url(#paint0_linear_49_2602)"/>
<path id="Vector 1274" d="M13.2215 17.0064L8.65465 25.4519C8.00514 26.653 9.00961 27.4538 9.59303 27.704L14.2224 29.4557C16.3494 29.9979 20.9663 31.3199 22.4177 32.2708C23.869 33.2217 25.1494 32.4168 25.6082 31.8955C28.7362 30.9154 35.2548 28.9177 36.3058 28.7675C37.3568 28.6174 38.1617 27.996 38.4328 27.704L44.0006 17.5694C43.5627 17.1941 43.7504 17.1941 42.812 17.0064C42.0613 16.8562 32.4897 19.6547 27.7978 21.0727C23.648 19.4879 15.1858 16.2932 14.5352 16.1931C13.8846 16.093 13.3883 16.6936 13.2215 17.0064Z" fill="url(#paint1_linear_49_2602)"/>
<path id="Vector 1276" d="M42.3741 16.5067L42.7495 17.1949L39.1836 24.1389L36.994 27.3295L30.3627 28.7683L24.0443 31.2707L17.2879 28.393L10.7817 26.5787L9.65564 25.5778L9.7182 25.0773L9.84332 25.0148L11.9703 23.701L26.4841 29.4565L29.6746 28.2053L36.8063 26.3911L42.3741 16.5067Z" fill="#E8E6E2"/>
<g id="Vector 1270" filter="url(#filter1_d_49_2602)">
<path d="M23.9266 31.0148C23.9529 30.9635 23.8333 30.5508 23.7942 30.3945C28.7364 28.1423 31.489 26.766 34.1165 26.3907C36.2184 26.0904 36.5563 25.8485 36.7439 25.5149C37.8909 23.3044 40.7853 18.5583 41.4359 17.5073C42.0621 16.4956 42.1977 16.195 42.1325 16.1367C42.1297 16.1348 42.1269 16.1329 42.124 16.131C42.1272 16.1325 42.13 16.1344 42.1325 16.1367C42.4257 16.3369 42.4988 16.6338 42.4368 16.8817L41.0605 19.2589L38.0577 24.7642C37.8283 25.2855 37.5572 26.2656 36.8691 26.7035C36.1749 27.1452 31.8157 27.7733 30.8008 28.1423C29.4622 28.6291 24.1588 30.8912 23.9266 31.0148C23.9249 31.0183 23.9225 31.0201 23.9193 31.0201C23.9176 31.0201 23.9201 31.0183 23.9266 31.0148Z" fill="#BDBDC9"/>
</g>
<g id="Vector 1271" filter="url(#filter2_d_49_2602)">
<path d="M10.5944 25.8279C9.94378 25.6277 9.67685 25.2857 9.71856 25.2023L9.78115 24.8269C9.88125 25.3274 12.3461 25.0771 13.4721 25.7027L14.5982 26.2658L15.7868 26.7037L18.1015 27.6421L23.8569 30.3321V30.8951C22.8977 30.4989 20.7039 29.5564 19.6029 28.9558C18.5018 28.3552 15.9953 27.3293 14.911 26.9539C13.6807 26.662 11.245 26.028 10.5944 25.8279Z" fill="#C3C1C4"/>
</g>
<path id="Vector 1267" d="M23.9197 30.4834L29.3623 19.6606C39.2217 15.2064 42.0618 15.5943 42.2495 16.345L36.6818 26.2294C31.8272 26.5797 26.151 29.2114 23.9197 30.4834Z" fill="url(#paint2_linear_49_2602)"/>
<path id="Vector 1269" d="M9.71863 25.0147C14.1228 25.5653 21.0836 29.0491 23.9196 30.5714L29.3622 19.7486C22.2054 15.5947 16.8712 15.0567 15.0987 15.3069L9.71863 25.0147Z" fill="url(#paint3_linear_49_2602)"/>
<path id="Vector 1273" d="M18.3517 29.5192L23.982 31.959L23.8569 30.8329C23.7318 30.7495 22.5807 30.1948 18.9773 28.6433C14.473 26.704 10.9697 26.2035 10.3441 25.9533C9.84366 25.7531 9.71854 25.3694 9.71854 25.2026C9.7811 24.869 9.83113 24.502 9.53085 25.7031C9.23056 26.9042 10.4901 27.3296 11.1574 27.3922L18.3517 29.5192Z" fill="url(#paint4_linear_49_2602)"/>
<path id="Vector 1272" d="M23.8567 30.9577L23.9818 31.9586C24.6491 31.6667 26.334 30.9577 27.7354 30.4572C29.487 29.8316 35.5553 28.1425 36.869 27.9548C37.92 27.8047 39.0586 25.5567 39.4965 24.4515L42.9372 17.5074L42.4368 16.6316C42.5869 16.9319 42.3742 17.3406 42.2491 17.5074L39.6216 22.387C38.9126 23.7633 37.4195 26.591 37.1192 26.8913C36.7439 27.2667 33.3657 27.9548 31.1761 28.3302C29.4245 28.6304 25.5666 30.2069 23.8567 30.9577Z" fill="url(#paint5_linear_49_2602)"/>
</g>
<g id="Rectangle 3466015" style="mix-blend-mode:hue">
<rect x="1.82483" y="10.4666" width="46.7988" height="25.9026" fill="#FFCC00"/>
</g>
<g id="Rectangle 3466016" style="mix-blend-mode:saturation">
<rect x="0.301392" y="10.4667" width="46.7988" height="25.9026" fill="#AEAEB2"/>
</g>
</g>
</g>
<defs>
<filter id="filter0_d_49_2602" x="11.256" y="0.474026" width="29.119" height="20.4321" filterUnits="userSpaceOnUse" color-interpolation-filters="sRGB">
<feFlood flood-opacity="0" result="BackgroundImageFix"/>
<feColorMatrix in="SourceAlpha" type="matrix" values="0 0 0 0 0 0 0 0 0 0 0 0 0 0 0 0 0 0 127 0" result="hardAlpha"/>
<feOffset dx="-1.46297" dy="-1.46297"/>
<feGaussianBlur stdDeviation="0.388129"/>
<feComposite in2="hardAlpha" operator="out"/>
<feColorMatrix type="matrix" values="0 0 0 0 0 0 0 0 0 0 0 0 0 0 0 0 0 0 0.1 0"/>
<feBlend mode="normal" in2="BackgroundImageFix" result="effect1_dropShadow_49_2602"/>
<feBlend mode="normal" in="SourceGraphic" in2="effect1_dropShadow_49_2602" result="shape"/>
</filter>
<filter id="filter1_d_49_2602" x="22.4847" y="15.4763" width="21.282" height="17.5079" filterUnits="userSpaceOnUse" color-interpolation-filters="sRGB">
<feFlood flood-opacity="0" result="BackgroundImageFix"/>
<feColorMatrix in="SourceAlpha" type="matrix" values="0 0 0 0 0 0 0 0 0 0 0 0 0 0 0 0 0 0 127 0" result="hardAlpha"/>
<feOffset dy="0.654725"/>
<feGaussianBlur stdDeviation="0.654725"/>
<feComposite in2="hardAlpha" operator="out"/>
<feColorMatrix type="matrix" values="0 0 0 0 0 0 0 0 0 0 0 0 0 0 0 0 0 0 0.2 0"/>
<feBlend mode="normal" in2="BackgroundImageFix" result="effect1_dropShadow_49_2602"/>
<feBlend mode="normal" in="SourceGraphic" in2="effect1_dropShadow_49_2602" result="shape"/>
</filter>
<filter id="filter2_d_49_2602" x="8.40491" y="24.1722" width="16.7615" height="8.68714" filterUnits="userSpaceOnUse" color-interpolation-filters="sRGB">
<feFlood flood-opacity="0" result="BackgroundImageFix"/>
<feColorMatrix in="SourceAlpha" type="matrix" values="0 0 0 0 0 0 0 0 0 0 0 0 0 0 0 0 0 0 127 0" result="hardAlpha"/>
<feOffset dy="0.654725"/>
<feGaussianBlur stdDeviation="0.654725"/>
<feComposite in2="hardAlpha" operator="out"/>
<feColorMatrix type="matrix" values="0 0 0 0 0 0 0 0 0 0 0 0 0 0 0 0 0 0 0.2 0"/>
<feBlend mode="normal" in2="BackgroundImageFix" result="effect1_dropShadow_49_2602"/>
<feBlend mode="normal" in="SourceGraphic" in2="effect1_dropShadow_49_2602" result="shape"/>
</filter>
<linearGradient id="paint0_linear_49_2602" x1="26.382" y1="17.5696" x2="26.382" y2="34.1312" gradientUnits="userSpaceOnUse">
<stop stop-color="#1FCBF1"/>
<stop offset="1" stop-color="#3068A3"/>
</linearGradient>
<linearGradient id="paint1_linear_49_2602" x1="26.2222" y1="16.182" x2="26.2222" y2="32.712" gradientUnits="userSpaceOnUse">
<stop stop-color="#359BC1"/>
<stop offset="1" stop-color="#40C1E5"/>
</linearGradient>
<linearGradient id="paint2_linear_49_2602" x1="26.4846" y1="29.7692" x2="42.3121" y2="16.319" gradientUnits="userSpaceOnUse">
<stop stop-color="#EBEBE8"/>
<stop offset="1" stop-color="#E0D8D3"/>
</linearGradient>
<linearGradient id="paint3_linear_49_2602" x1="28.7992" y1="20.0726" x2="23.3565" y2="24.6394" gradientUnits="userSpaceOnUse">
<stop stop-color="#D0CBC8"/>
<stop offset="0.979707" stop-color="#E1E0DE"/>
</linearGradient>
<linearGradient id="paint4_linear_49_2602" x1="16.7877" y1="27.7049" x2="16.7877" y2="29.394" gradientUnits="userSpaceOnUse">
<stop stop-color="#AAAAB6"/>
<stop offset="1" stop-color="#ABA8B9"/>
</linearGradient>
<linearGradient id="paint5_linear_49_2602" x1="42.9372" y1="17.57" x2="29.8624" y2="29.5813" gradientUnits="userSpaceOnUse">
<stop offset="0.3" stop-color="#99A8B1"/>
<stop offset="0.575" stop-color="#BDBDBD"/>
<stop offset="1" stop-color="#ACB0CB"/>
</linearGradient>
</defs>
</svg>
