<svg width="283" height="188" viewBox="0 0 283 188" fill="none" xmlns="http://www.w3.org/2000/svg">
<g filter="url(#filter0_d_6_17)">
<path fill-rule="evenodd" clip-rule="evenodd" d="M158.713 58.718C167.315 46.1585 181.763 37.9181 198.135 37.9181C224.506 37.9181 245.883 59.2958 245.883 85.6664C245.883 90.5095 245.162 95.1842 243.822 99.5889L243.886 99.5927C241.101 111.132 230.457 126.948 225.483 133.414L219.017 130.43L218.99 128.632C212.883 131.601 206.048 133.307 198.825 133.41L198.828 133.415H116.479L154.858 65.4652C155.895 63.2472 157.098 61.122 158.45 59.1055L158.692 58.6783L158.713 58.718Z" fill="#FFFADB"/>
<path fill-rule="evenodd" clip-rule="evenodd" d="M126.999 133.411C95.6348 133.109 70.3025 107.59 70.3025 76.154C70.3025 44.5305 95.9383 18.8947 127.562 18.8947C147.29 18.8947 164.689 28.8721 174.986 44.0563L175.122 43.8034L225.742 133.427H126.991L126.999 133.411Z" fill="#FFF3A9"/>
<path fill-rule="evenodd" clip-rule="evenodd" d="M102.9 84.5775L130.485 133.415H71.2971L71.2994 133.411C52.5739 133.146 37.4756 117.884 37.4756 99.0956C37.4756 80.1418 52.8407 64.7767 71.7945 64.7767C83.5625 64.7767 93.947 70.6997 100.13 79.7272L100.145 79.6988L100.317 80.0037C101.29 81.4539 102.155 82.9823 102.9 84.5775Z" fill="#FFEA6A"/>
</g>
<g filter="url(#filter1_d_6_17)">
<path fill-rule="evenodd" clip-rule="evenodd" d="M158.713 58.718C167.315 46.1585 181.763 37.9181 198.135 37.9181C224.506 37.9181 245.883 59.2958 245.883 85.6664C245.883 90.5095 245.162 95.1842 243.822 99.5889L243.886 99.5927C241.101 111.132 230.457 126.948 225.483 133.414L219.017 130.43L218.99 128.632C212.883 131.601 206.048 133.307 198.825 133.41L198.828 133.415H116.479L154.858 65.4652C155.895 63.2472 157.098 61.122 158.45 59.1055L158.692 58.6783L158.713 58.718Z" fill="#FFFADB"/>
<path fill-rule="evenodd" clip-rule="evenodd" d="M126.999 133.411C95.6348 133.109 70.3025 107.59 70.3025 76.154C70.3025 44.5305 95.9383 18.8947 127.562 18.8947C147.29 18.8947 164.689 28.8721 174.986 44.0563L175.122 43.8034L225.742 133.427H126.991L126.999 133.411Z" fill="#FFF3A9"/>
<path fill-rule="evenodd" clip-rule="evenodd" d="M102.9 84.5775L130.485 133.415H71.2971L71.2994 133.411C52.5739 133.146 37.4756 117.884 37.4756 99.0956C37.4756 80.1418 52.8407 64.7767 71.7945 64.7767C83.5625 64.7767 93.947 70.6997 100.13 79.7272L100.145 79.6988L100.317 80.0037C101.29 81.4539 102.155 82.9823 102.9 84.5775Z" fill="#FFEA6A"/>
</g>
<g filter="url(#filter2_d_6_17)">
<path fill-rule="evenodd" clip-rule="evenodd" d="M158.713 58.718C167.315 46.1585 181.763 37.9181 198.135 37.9181C224.506 37.9181 245.883 59.2958 245.883 85.6664C245.883 90.5095 245.162 95.1842 243.822 99.5889L243.886 99.5927C241.101 111.132 230.457 126.948 225.483 133.414L219.017 130.43L218.99 128.632C212.883 131.601 206.048 133.307 198.825 133.41L198.828 133.415H116.479L154.858 65.4652C155.895 63.2472 157.098 61.122 158.45 59.1055L158.692 58.6783L158.713 58.718Z" fill="#FFFADB"/>
<path fill-rule="evenodd" clip-rule="evenodd" d="M126.999 133.411C95.6348 133.109 70.3025 107.59 70.3025 76.154C70.3025 44.5305 95.9383 18.8947 127.562 18.8947C147.29 18.8947 164.689 28.8721 174.986 44.0563L175.122 43.8034L225.742 133.427H126.991L126.999 133.411Z" fill="#FFF3A9"/>
<path fill-rule="evenodd" clip-rule="evenodd" d="M102.9 84.5775L130.485 133.415H71.2971L71.2994 133.411C52.5739 133.146 37.4756 117.884 37.4756 99.0956C37.4756 80.1418 52.8407 64.7767 71.7945 64.7767C83.5625 64.7767 93.947 70.6997 100.13 79.7272L100.145 79.6988L100.317 80.0037C101.29 81.4539 102.155 82.9823 102.9 84.5775Z" fill="#FFEA6A"/>
</g>
<defs>
<filter id="filter0_d_6_17" x="0.850323" y="0.081995" width="281.658" height="187.783" filterUnits="userSpaceOnUse" color-interpolation-filters="sRGB">
<feFlood flood-opacity="0" result="BackgroundImageFix"/>
<feColorMatrix in="SourceAlpha" type="matrix" values="0 0 0 0 0 0 0 0 0 0 0 0 0 0 0 0 0 0 127 0" result="hardAlpha"/>
<feMorphology radius="1" operator="dilate" in="SourceAlpha" result="effect1_dropShadow_6_17"/>
<feOffset dy="17.8127"/>
<feGaussianBlur stdDeviation="17.8127"/>
<feComposite in2="hardAlpha" operator="out"/>
<feColorMatrix type="matrix" values="0 0 0 0 0 0 0 0 0 0 0 0 0 0 0 0 0 0 0.05 0"/>
<feBlend mode="normal" in2="BackgroundImageFix" result="effect1_dropShadow_6_17"/>
<feBlend mode="normal" in="SourceGraphic" in2="effect1_dropShadow_6_17" result="shape"/>
</filter>
<filter id="filter1_d_6_17" x="0.850323" y="0.081995" width="281.658" height="187.783" filterUnits="userSpaceOnUse" color-interpolation-filters="sRGB">
<feFlood flood-opacity="0" result="BackgroundImageFix"/>
<feColorMatrix in="SourceAlpha" type="matrix" values="0 0 0 0 0 0 0 0 0 0 0 0 0 0 0 0 0 0 127 0" result="hardAlpha"/>
<feMorphology radius="1" operator="dilate" in="SourceAlpha" result="effect1_dropShadow_6_17"/>
<feOffset dy="17.8127"/>
<feGaussianBlur stdDeviation="17.8127"/>
<feComposite in2="hardAlpha" operator="out"/>
<feColorMatrix type="matrix" values="0 0 0 0 0 0 0 0 0 0 0 0 0 0 0 0 0 0 0.05 0"/>
<feBlend mode="normal" in2="BackgroundImageFix" result="effect1_dropShadow_6_17"/>
<feBlend mode="normal" in="SourceGraphic" in2="effect1_dropShadow_6_17" result="shape"/>
</filter>
<filter id="filter2_d_6_17" x="0.850323" y="0.081995" width="281.658" height="187.783" filterUnits="userSpaceOnUse" color-interpolation-filters="sRGB">
<feFlood flood-opacity="0" result="BackgroundImageFix"/>
<feColorMatrix in="SourceAlpha" type="matrix" values="0 0 0 0 0 0 0 0 0 0 0 0 0 0 0 0 0 0 127 0" result="hardAlpha"/>
<feMorphology radius="1" operator="dilate" in="SourceAlpha" result="effect1_dropShadow_6_17"/>
<feOffset dy="17.8127"/>
<feGaussianBlur stdDeviation="17.8127"/>
<feComposite in2="hardAlpha" operator="out"/>
<feColorMatrix type="matrix" values="0 0 0 0 0 0 0 0 0 0 0 0 0 0 0 0 0 0 0.05 0"/>
<feBlend mode="normal" in2="BackgroundImageFix" result="effect1_dropShadow_6_17"/>
<feBlend mode="normal" in="SourceGraphic" in2="effect1_dropShadow_6_17" result="shape"/>
</filter>
</defs>
</svg>
